<?xml version="1.0" standalone="no"?>
<!DOCTYPE svg PUBLIC "-//W3C//DTD SVG 20010904//EN"
 "http://www.w3.org/TR/2001/REC-SVG-20010904/DTD/svg10.dtd">
<svg version="1.0" xmlns="http://www.w3.org/2000/svg"
 width="736.000000pt" height="736.000000pt" viewBox="0 0 736.000000 736.000000"
 preserveAspectRatio="xMidYMid meet">
<metadata>
Created by potrace 1.11, written by Peter Selinger 2001-2013
</metadata>
<g transform="translate(0.000000,736.000000) scale(0.100000,-0.100000)"
fill="#000000" stroke="none">
<path d="M0 3680 l0 -3680 436 0 c412 1 437 2 456 20 27 25 69 35 79 18 7 -10
9 -10 9 0 0 19 20 14 21 -5 0 -13 3 -12 10 5 5 13 22 29 39 35 16 6 30 15 30
19 0 4 4 8 10 8 11 0 2 -59 -13 -78 -14 -18 -4 -24 27 -16 19 4 26 13 26 29 0
13 5 27 10 30 6 4 8 11 5 16 -3 5 1 6 10 3 13 -5 15 -2 9 21 -5 20 -4 26 5 21
13 -9 15 -38 2 -52 -5 -5 -12 -24 -16 -42 l-7 -32 55 0 c56 0 65 5 133 82 42
47 104 98 104 86 0 -10 3 -9 9 1 11 17 32 5 24 -14 -3 -9 1 -15 10 -15 8 0 17
-4 19 -10 2 -6 17 -6 42 1 29 8 41 8 46 -1 4 -6 28 -12 53 -13 33 -2 50 -8 61
-22 15 -19 15 -19 17 10 1 17 2 38 1 47 -1 11 3 15 13 12 11 -4 15 1 15 16 0
16 4 20 16 16 9 -3 24 -6 35 -6 24 0 24 -11 0 -37 -19 -20 -19 -20 12 -21 17
0 37 4 44 10 9 7 17 7 26 0 8 -7 18 -7 27 -2 8 5 18 6 22 3 5 -2 15 1 23 7 30
25 15 -15 -30 -82 l-45 -67 511 -1 c319 0 508 3 505 9 -4 5 1 17 10 25 14 15
14 17 0 22 -9 3 -22 4 -30 1 -8 -3 -17 1 -20 9 -8 21 -28 6 -21 -16 4 -13 -2
-19 -27 -25 -30 -8 -59 -10 -80 -6 -15 2 -8 21 7 21 23 0 18 24 -7 35 -14 6
-22 17 -20 28 2 9 -3 17 -9 17 -7 0 -3 10 9 23 21 22 28 60 19 102 -3 16 -14
21 -51 25 -25 3 -45 10 -44 15 2 6 7 9 12 7 5 -2 4 3 -2 11 -7 8 -9 17 -5 20
3 4 -1 7 -11 7 -9 0 -15 4 -11 9 3 5 0 13 -7 17 -16 10 16 22 61 23 19 1 31 4
28 8 -4 3 -2 12 3 18 7 9 6 16 -4 24 -11 9 -12 19 -6 35 4 12 6 34 3 48 -4 20
0 29 16 37 15 9 21 9 21 1 0 -6 5 -8 11 -4 6 3 15 0 20 -7 7 -11 9 -10 9 3 0
10 9 22 21 28 16 9 19 17 14 43 -16 76 -27 108 -44 124 -10 10 -21 25 -25 33
-4 8 -13 26 -20 39 -13 21 -15 21 -23 6 -9 -16 -11 -16 -16 -1 -7 18 -37 22
-37 4 0 -13 -14 -2 -16 13 -1 5 -3 12 -4 17 -1 4 -3 16 -4 27 -1 15 -8 20 -33
20 -36 1 -54 12 -35 24 7 4 10 15 6 24 -3 10 -1 17 6 17 6 0 8 -5 4 -11 -4 -7
-1 -10 7 -7 8 3 13 13 11 22 -2 10 4 28 13 42 12 19 24 24 55 24 36 0 40 -3
40 -24 0 -14 6 -31 13 -38 7 -7 21 -25 31 -40 21 -32 41 -36 51 -11 7 16 9 15
15 -7 5 -14 8 -18 9 -9 1 15 4 15 36 0 33 -15 35 -19 33 -56 -2 -51 6 -65 34
-57 14 3 19 2 14 -6 -4 -7 -14 -12 -23 -12 -14 0 -14 -3 2 -20 10 -11 14 -20
10 -20 -5 0 -2 -6 7 -12 9 -7 19 -30 23 -51 5 -32 10 -38 25 -34 15 4 22 -3
31 -31 17 -50 19 -130 4 -136 -7 -2 -20 -34 -30 -70 -15 -55 -16 -74 -6 -122
14 -74 14 -84 -3 -84 -9 0 -14 -9 -13 -21 1 -14 10 -22 31 -26 l30 -6 -44 -39
c-23 -21 -41 -41 -38 -43 3 -3 11 1 18 10 19 23 40 19 37 -7 -2 -12 -9 -24
-15 -26 -7 -2 -12 -10 -12 -18 0 -12 59 -14 379 -14 352 0 379 1 386 18 6 16
7 16 19 -1 8 -10 26 -17 49 -17 31 0 36 4 39 25 4 33 22 33 26 1 l3 -25 125 1
c112 1 124 3 124 19 0 22 22 37 28 19 3 -9 9 -5 19 11 8 14 12 16 9 6 -3 -10
-6 -25 -6 -33 0 -9 -4 -13 -9 -9 -5 3 -12 1 -16 -5 -4 -7 310 -10 964 -10 935
0 971 1 971 18 0 10 -3 22 -6 25 -11 11 -14 136 -4 142 16 10 12 35 -5 29 -9
-4 -15 0 -15 10 0 9 6 16 14 16 7 0 19 7 27 16 13 16 19 64 8 64 -4 0 -7 24
-6 54 1 40 4 53 14 49 7 -3 20 0 27 6 10 8 16 9 21 1 9 -15 35 -12 35 4 0 8 8
15 18 15 44 1 53 5 47 19 -3 8 -1 20 5 27 8 9 8 15 0 20 -5 3 -10 1 -10 -5 0
-19 -69 60 -72 83 -2 15 -12 23 -33 27 -16 3 -34 14 -40 25 -6 13 -18 19 -30
17 -19 -3 -19 -2 -2 11 21 17 21 24 3 42 -12 12 -15 12 -20 0 -9 -23 -28 -17
-24 8 2 17 10 22 33 23 34 1 65 -12 80 -33 8 -11 21 -13 50 -7 l40 8 -42 7
c-23 4 -54 16 -69 26 -16 10 -37 16 -48 14 -17 -2 -18 -1 -7 13 7 9 19 16 26
16 6 0 12 7 12 15 0 10 -11 15 -33 15 -18 0 -39 3 -48 6 -11 4 -16 0 -16 -12
0 -14 -2 -16 -9 -6 -7 11 -9 11 -14 -2 -4 -9 -12 -16 -19 -16 -9 0 -13 19 -14
65 0 49 3 65 13 65 8 0 25 7 38 16 19 12 31 14 53 6 23 -8 28 -7 28 8 0 11
-13 22 -33 29 -21 8 -33 19 -33 31 0 10 -7 25 -15 34 -9 9 -11 17 -5 21 5 3
10 1 10 -5 0 -6 4 -9 8 -6 4 3 26 1 47 -4 22 -5 41 -7 43 -5 13 12 -16 47 -54
67 -25 12 -50 29 -57 37 -10 12 -7 13 23 8 19 -4 55 -9 80 -12 42 -5 43 -4 15
6 -48 18 -75 49 -75 85 0 23 -5 34 -17 37 -17 4 -17 5 0 6 9 0 17 5 17 10 0
12 -81 25 -115 19 -13 -3 -22 -2 -20 2 2 4 35 12 72 19 87 15 108 27 67 37
-43 10 -50 17 -28 25 32 13 54 10 54 -7 0 -13 8 -15 40 -12 28 2 40 0 40 -9 0
-7 8 -13 18 -13 9 0 36 -10 60 -23 48 -26 138 -27 128 -1 -3 7 2 18 12 23 14
8 12 10 -13 16 -60 12 -109 32 -114 46 -3 12 -2 12 11 1 10 -7 19 -9 22 -4 3
6 -4 12 -17 16 -12 3 -23 1 -25 -4 -2 -6 -11 -10 -19 -10 -12 0 -13 3 -4 14
10 11 6 16 -16 24 -15 6 -22 11 -15 11 7 1 11 5 7 11 -3 5 -12 7 -20 3 -8 -3
-15 0 -15 7 0 6 10 11 23 10 42 -4 57 0 57 14 0 8 -14 19 -30 25 -18 6 -28 6
-25 1 4 -6 -1 -10 -10 -10 -11 0 -15 7 -13 22 2 16 -3 23 -22 28 -17 4 -25 13
-24 28 0 11 -2 21 -5 20 -3 0 -19 0 -35 1 l-29 1 21 23 c12 13 19 27 15 30 -3
4 -1 7 5 7 6 0 17 18 23 40 7 22 18 40 26 40 23 0 93 40 93 53 0 20 146 48
195 38 71 -15 125 -34 125 -45 0 -6 13 -20 30 -31 20 -13 25 -22 17 -27 -7 -5
0 -8 17 -8 20 0 27 -4 23 -15 -7 -16 61 -75 86 -75 8 0 17 -7 21 -15 3 -8 12
-15 21 -15 8 0 15 -6 15 -14 0 -17 54 -76 69 -76 6 0 11 -12 11 -27 0 -20 8
-33 29 -45 16 -9 34 -26 40 -37 10 -19 9 -21 -12 -21 -12 0 -28 5 -35 12 -7 7
-12 8 -12 2 0 -6 12 -16 28 -23 15 -8 34 -17 42 -21 8 -4 18 -24 21 -44 3 -20
11 -42 18 -49 6 -6 11 -17 11 -23 0 -13 -43 -5 -81 16 -9 5 -34 12 -55 16
l-39 7 56 -54 c55 -54 95 -103 118 -147 12 -22 11 -23 -8 -17 -15 5 -21 2 -21
-10 0 -12 -6 -15 -20 -10 -14 4 -20 2 -20 -9 0 -24 -20 -29 -61 -16 -33 11
-42 11 -56 -2 -10 -8 -26 -18 -36 -21 -12 -4 -17 -16 -16 -39 0 -18 -2 -52 -6
-75 -6 -40 -4 -45 44 -104 28 -35 48 -65 46 -68 -3 -2 0 -10 6 -17 11 -14 -2
-26 -17 -16 -5 4 -14 18 -20 30 -8 21 -10 18 -10 -20 0 -23 -2 -69 -4 -100 -2
-43 2 -64 16 -85 10 -16 19 -30 19 -33 1 -3 5 -23 10 -45 5 -22 10 -74 11
-115 1 -41 9 -109 18 -150 20 -95 20 -100 -2 -100 -23 0 -52 -30 -52 -53 0
-16 25 -17 285 -17 l285 0 0 1645 c0 1456 -2 1645 -15 1645 -8 0 -15 5 -15 10
0 6 7 10 16 10 9 0 14 7 12 18 -2 11 -11 16 -25 14 -12 -2 -24 2 -28 7 -4 7
-12 7 -25 -1 -15 -10 -22 -10 -32 0 -9 9 -8 12 5 12 9 0 19 -1 20 -2 2 -2 11
3 20 10 9 8 20 11 26 8 5 -3 16 -3 25 0 15 6 16 186 16 1995 l0 1989 -1681 0
c-1340 0 -1680 -3 -1676 -12 2 -7 -2 -21 -11 -30 -14 -16 -13 -20 1 -36 26
-28 21 -52 -13 -63 -34 -12 -38 -23 -12 -38 16 -10 16 -10 -2 -11 -14 0 -16
-3 -8 -13 12 -14 5 -57 -9 -57 -14 0 -11 -20 6 -37 8 -8 12 -19 9 -25 -9 -14
16 -119 32 -138 7 -8 12 -19 12 -23 0 -5 9 -20 21 -33 12 -13 21 -29 21 -34 0
-6 7 -10 15 -10 8 0 15 -7 15 -15 0 -17 65 -22 75 -5 4 7 13 5 25 -3 11 -7 35
-12 55 -11 19 2 35 1 35 -1 0 -16 -26 -55 -36 -55 -20 0 -26 -18 -30 -87 -2
-36 -6 -73 -9 -83 -3 -10 -1 -21 5 -25 8 -5 7 -11 -2 -22 -10 -12 -9 -17 5
-28 13 -9 15 -20 10 -45 -5 -28 -4 -32 10 -27 21 8 22 -1 1 -24 -15 -17 -15
-19 0 -34 21 -21 20 -27 -1 -23 -14 2 -18 -3 -17 -22 3 -53 3 -53 17 -41 16
13 28 5 20 -15 -3 -8 1 -14 11 -14 9 0 16 4 16 9 0 13 57 34 71 25 8 -4 10 -3
5 5 -4 6 0 14 9 17 9 4 14 13 11 20 -4 10 2 14 19 14 13 0 33 10 44 21 12 13
26 19 35 16 10 -4 16 -1 16 8 0 8 5 15 10 15 6 0 10 -15 10 -34 0 -19 7 -41
15 -50 21 -21 20 -50 -2 -44 -15 4 -18 -2 -18 -39 0 -23 3 -43 6 -43 4 0 -1
-16 -11 -37 -17 -35 -17 -73 1 -73 5 0 2 -11 -7 -25 -15 -24 -15 -25 2 -26 16
0 15 -2 -4 -9 -15 -6 -22 -18 -22 -35 0 -14 5 -25 10 -25 6 0 10 -4 10 -10 0
-5 -7 -7 -16 -3 -14 5 -16 -1 -13 -40 2 -25 2 -44 0 -41 -6 5 -31 -16 -31 -27
0 -5 6 -6 12 -4 18 6 48 -38 38 -55 -4 -7 -13 -9 -19 -6 -6 4 -9 11 -6 16 3 5
1 11 -5 15 -6 3 -13 -1 -16 -9 -3 -9 -10 -16 -16 -16 -5 0 -6 5 -3 10 3 6 1
10 -6 10 -8 0 -10 -17 -7 -55 3 -31 1 -51 -2 -44 -4 6 -13 10 -19 8 -8 -3 -5
-12 8 -25 15 -16 17 -24 8 -33 -9 -9 -9 -14 1 -20 10 -6 10 -10 -2 -21 -10 -8
-14 -21 -10 -36 7 -26 -10 -34 -20 -9 -10 27 -35 17 -34 -14 1 -15 -2 -34 -6
-40 -5 -7 0 -21 10 -32 13 -15 14 -19 3 -19 -11 -1 -11 -3 1 -13 9 -7 15 -27
15 -45 0 -24 7 -37 25 -49 14 -9 31 -24 37 -32 11 -14 14 -14 23 -1 9 13 11
13 20 0 7 -11 5 -16 -10 -18 -31 -5 -23 -22 10 -22 22 0 30 5 30 18 1 16 1 16
14 0 7 -10 21 -18 30 -18 9 0 16 -5 16 -11 0 -6 7 -18 16 -26 12 -12 13 -18 3
-23 -6 -5 -9 -16 -5 -25 4 -13 2 -16 -9 -12 -20 8 -28 -8 -10 -23 19 -16 19
-28 0 -64 -8 -15 -17 -38 -20 -50 -2 -11 -6 -32 -9 -45 -3 -14 -1 -31 6 -38 8
-10 7 -18 -5 -31 -8 -9 -18 -32 -22 -49 -3 -18 -11 -35 -16 -38 -5 -4 -9 -15
-9 -26 0 -26 -14 -24 -30 6 -16 29 -26 25 -44 -20 -12 -28 -49 -55 -61 -43 -2
2 6 36 17 76 28 104 12 111 -43 19 l-31 -52 6 52 c4 29 13 70 21 93 19 53 3
51 -35 -5 -34 -50 -41 -55 -33 -26 6 23 -27 83 -42 78 -5 -2 -15 -17 -20 -33
-13 -35 -35 -77 -40 -72 -10 10 16 260 29 287 10 19 19 77 25 158 9 123 7 153
-8 153 -9 0 -41 -111 -41 -143 0 -52 -31 -125 -67 -161 -46 -44 -68 -52 -100
-35 -24 13 -25 17 -23 104 4 142 2 165 -15 159 -17 -7 -40 -67 -55 -146 -12
-61 -30 -78 -30 -29 0 17 -11 43 -27 61 -24 29 -28 30 -38 16 -17 -23 -30 -20
-43 9 -6 14 -16 25 -22 25 -17 0 -11 25 21 94 41 88 33 102 -15 26 -40 -62
-56 -74 -56 -40 0 27 -11 25 -46 -6 l-28 -27 -14 22 c-8 11 -23 21 -33 21 -12
0 -26 13 -36 34 -17 37 -46 51 -73 36 -28 -15 -40 30 -42 163 -1 122 -1 122
-7 35 -3 -47 -9 -89 -13 -93 -4 -4 -16 23 -27 59 -23 73 -34 97 -55 119 -8 8
-19 30 -24 48 l-10 34 -2 -40 c-1 -22 -1 -47 0 -55 2 -19 -21 -90 -30 -90 -8
0 -19 59 -21 110 0 19 -7 53 -14 75 -13 37 -14 30 -12 -98 2 -131 -6 -177 -18
-102 -3 19 -8 51 -11 71 -3 24 -12 38 -25 41 -12 3 -23 20 -29 44 -6 22 -16
39 -22 39 -7 0 -9 -31 -4 -102 l6 -103 -26 55 c-15 30 -39 104 -55 164 -16 61
-32 112 -34 114 -3 3 -4 -44 -3 -104 1 -60 -2 -155 -7 -211 l-8 -102 -24 36
c-13 19 -28 58 -33 85 -12 64 -46 114 -66 97 -16 -13 -18 -56 -3 -118 5 -24 7
-46 3 -50 -3 -3 -25 15 -49 41 -30 33 -55 77 -81 143 -42 105 -64 111 -37 9
28 -107 61 -259 57 -263 -2 -3 -20 11 -39 30 -19 19 -45 43 -57 55 -13 12 -43
54 -68 94 -25 40 -46 66 -48 58 -1 -8 6 -61 17 -118 12 -57 19 -105 18 -107
-9 -8 -51 52 -88 123 -22 43 -37 70 -34 59 8 -26 55 -212 55 -220 0 -31 -79
49 -121 121 -29 51 -86 110 -96 100 -6 -6 39 -86 74 -132 23 -31 23 -69 -1
-61 -6 2 -46 46 -88 98 -50 62 -75 100 -72 112 6 19 -12 24 -19 5 -4 -10 -6
-10 -6 0 -1 7 6 15 14 18 12 5 13 10 4 20 -9 11 -8 14 2 14 9 0 10 3 3 8 -10
7 -11 44 -1 72 3 8 8 33 11 55 2 22 2 32 0 23 -9 -29 -32 -22 -26 7 2 14 9 25
15 25 6 0 1 7 -11 16 -16 11 -21 21 -16 36 6 20 6 20 -17 -1 l-24 -22 -3 20
c-2 12 -8 19 -13 16 -5 -4 -9 1 -9 9 0 9 6 16 13 16 8 0 8 3 -2 9 -18 12 -24
63 -8 74 8 6 7 7 -5 4 -9 -3 -22 1 -29 10 -12 13 -14 13 -21 -4 -5 -11 -7 -3
-4 25 4 39 2 42 -20 42 -17 0 -22 -4 -18 -15 5 -11 -1 -15 -20 -15 -14 0 -26
5 -26 10 0 6 5 10 11 10 6 0 17 6 24 14 12 11 10 15 -10 26 -22 12 -23 14 -8
25 15 11 13 13 -15 20 -17 3 -36 4 -41 1 -5 -4 -12 0 -14 6 -4 10 -6 10 -6 0
-1 -7 6 -15 14 -18 8 -4 13 -10 10 -15 -3 -4 -12 -6 -20 -3 -7 3 -23 1 -34 -6
-14 -7 -21 -7 -21 0 0 5 -4 10 -10 10 -5 0 -10 -10 -10 -21 0 -17 -3 -19 -14
-10 -15 13 -10 50 8 64 7 6 4 7 -6 3 -13 -4 -20 2 -24 19 -8 32 -27 32 -48 0
-9 -14 -24 -25 -33 -25 -13 0 -14 -3 -5 -12 7 -7 12 -21 11 -33 0 -18 -1 -18
-10 4 -7 18 -14 22 -33 17 -18 -4 -25 -1 -29 14 -5 21 4 24 50 20 38 -3 26 9
-20 21 -40 10 -44 14 -58 59 -9 30 -12 55 -7 64 7 12 5 14 -7 10 -10 -4 -15 0
-15 14 0 11 -11 27 -25 36 -14 9 -25 23 -25 31 0 7 -9 20 -19 27 -10 8 -21 25
-23 38 -2 19 -8 24 -25 22 -17 -2 -21 1 -17 12 3 9 1 16 -5 16 -23 0 -34 41
-21 81 10 30 10 42 1 53 -14 17 -39 15 -52 -5 -6 -10 -9 -3 -9 24 0 20 -5 37
-11 37 -5 0 -7 5 -3 11 4 7 -2 9 -16 7 -13 -2 -25 3 -28 11 -2 8 0 11 5 8 5
-3 15 -2 23 3 11 7 7 11 -15 20 l-30 12 25 14 25 14 -25 -5 c-22 -5 -28 -1
-43 33 -9 21 -17 45 -17 52 0 9 -3 10 -13 2 -10 -9 -12 -4 -9 23 3 25 0 36
-12 41 -10 4 -16 18 -16 35 0 16 -5 29 -11 29 -6 0 -9 7 -6 15 4 8 2 17 -4 21
-7 4 -6 10 1 19 8 9 8 15 0 20 -16 10 -12 33 8 38 16 4 16 5 0 6 -11 1 -18 9
-18 21 0 11 -6 20 -12 20 -9 0 -8 4 2 10 10 6 -184 10 -557 10 l-573 0 0
-3680z m4247 3138 c-3 -8 -6 -5 -6 6 -1 11 2 17 5 13 3 -3 4 -12 1 -19z
m-2487 -508 c0 -5 -4 -10 -10 -10 -5 0 -10 5 -10 10 0 6 5 10 10 10 6 0 10 -4
10 -10z m2484 -25 c-4 -8 -10 -12 -15 -9 -11 6 -2 24 11 24 5 0 7 -7 4 -15z
m-2419 -35 c3 -5 -1 -10 -10 -10 -9 0 -13 5 -10 10 3 6 8 10 10 10 2 0 7 -4
10 -10z m279 -426 c9 -22 8 -26 -6 -22 -13 5 -20 38 -8 38 4 0 11 -7 14 -16z
m2326 -124 c0 -5 -2 -10 -4 -10 -3 0 -8 5 -11 10 -3 6 -1 10 4 10 6 0 11 -4
11 -10z m-2286 -85 c3 -8 1 -15 -4 -15 -6 0 -10 7 -10 15 0 8 2 15 4 15 2 0 6
-7 10 -15z m-464 -11 c0 -8 -4 -12 -10 -9 -5 3 -10 10 -10 16 0 5 5 9 10 9 6
0 10 -7 10 -16z m490 -62 c0 -15 4 -21 12 -16 7 5 8 3 3 -5 -10 -17 -21 -3
-29 39 -4 25 -3 31 4 20 5 -8 10 -25 10 -38z m1036 -17 c-3 -20 -20 -20 -24
-1 -2 9 3 16 11 16 9 0 14 -7 13 -15z m-351 -72 c-8 -80 -25 -135 -33 -101 -2
9 2 26 7 37 6 11 11 47 11 80 0 37 4 61 11 61 7 0 9 -24 4 -77z m-1074 29 c1
-9 1 -23 0 -29 -1 -7 3 -13 9 -13 5 0 10 -5 10 -11 0 -17 -29 10 -46 42 -8 16
-14 33 -14 39 0 18 40 -9 41 -28z m986 -24 c-3 -19 2 -47 10 -65 16 -34 11
-83 -8 -83 -8 0 -10 13 -6 36 4 26 2 37 -9 41 -10 4 -12 12 -8 27 4 11 7 33 6
49 -1 15 3 27 9 27 7 0 9 -12 6 -32z m-117 -8 c0 -33 -15 -41 -22 -12 -6 21 1
42 13 42 5 0 9 -13 9 -30z m147 -12 c-3 -8 -6 -5 -6 6 -1 11 2 17 5 13 3 -3 4
-12 1 -19z m-240 -20 c-3 -7 -5 -2 -5 12 0 14 2 19 5 13 2 -7 2 -19 0 -25z
m163 -14 c0 -8 -4 -12 -10 -9 -5 3 -10 10 -10 16 0 5 5 9 10 9 6 0 10 -7 10
-16z m-107 -26 c16 -10 16 -50 2 -78 l-13 -25 0 25 c0 14 -3 45 -6 70 -3 25
-3 38 0 30 4 -8 12 -18 17 -22z m-688 -45 c5 -27 4 -32 -8 -27 -17 6 -31 50
-21 65 9 15 21 -1 29 -38z m499 3 c-7 -30 -24 -35 -24 -8 0 18 20 45 27 38 2
-2 1 -15 -3 -30z m303 12 c-3 -8 -6 -5 -6 6 -1 11 2 17 5 13 3 -3 4 -12 1 -19z
m-237 3 c0 -5 -6 -14 -14 -20 -12 -10 -13 -8 -9 8 5 21 23 30 23 12z m18 -63
c2 -18 -1 -29 -4 -25 -10 10 -14 57 -5 57 4 0 8 -14 9 -32z m202 16 c0 -8 -5
-12 -10 -9 -6 4 -8 11 -5 16 9 14 15 11 15 -7z m-150 -3 c0 -6 -4 -13 -10 -16
-5 -3 -10 1 -10 9 0 9 5 16 10 16 6 0 10 -4 10 -9z m447 -57 c-2 -38 -45 -100
-59 -86 -9 9 42 121 54 122 4 0 6 -16 5 -36z m-997 -9 c0 -5 -5 -3 -10 5 -5 8
-10 20 -10 25 0 6 5 3 10 -5 5 -8 10 -19 10 -25z m-23 -63 c-3 -14 -6 -12 -14
8 -6 14 -8 29 -5 34 7 13 24 -22 19 -42z m86 -77 c5 -49 5 -50 -13 -27 -26 31
-35 98 -19 130 l14 25 6 -39 c4 -22 9 -61 12 -89z m1157 109 c0 -8 -4 -12 -10
-9 -5 3 -10 10 -10 16 0 5 5 9 10 9 6 0 10 -7 10 -16z m-37 -54 c-5 -28 -8
-31 -13 -15 -4 11 -3 28 2 38 14 27 19 16 11 -23z m-1603 10 c0 -5 -7 -10 -15
-10 -8 0 -15 5 -15 10 0 6 7 10 15 10 8 0 15 -4 15 -10z m1555 -20 c9 7 18 10
22 6 12 -12 -21 -33 -60 -40 l-38 -7 17 26 c13 20 19 23 30 14 11 -9 18 -8 29
1z m-1561 -15 c6 -16 -3 -19 -29 -9 -13 5 -14 8 -3 15 19 12 25 11 32 -6z
m1736 -3 c0 -4 -9 -15 -20 -25 -22 -19 -25 -15 -10 14 11 19 30 26 30 11z
m-1060 -44 c0 -10 -4 -18 -10 -18 -5 0 -10 15 -10 33 0 24 3 28 10 17 5 -8 10
-23 10 -32z m788 -3 c-3 -3 -9 2 -12 12 -6 14 -5 15 5 6 7 -7 10 -15 7 -18z
m-927 -30 c-9 -30 -9 -30 -10 10 -1 25 2 36 9 29 6 -6 6 -21 1 -39z m994 15
c-3 -5 -11 -10 -16 -10 -6 0 -7 5 -4 10 3 6 11 10 16 10 6 0 7 -4 4 -10z m30
-27 c-4 -10 -10 -26 -12 -35 -3 -10 -9 -18 -14 -18 -13 0 -11 44 3 58 18 18
31 15 23 -5z m-871 -45 c-1 -18 -3 -36 -3 -40 -1 -5 -5 -8 -9 -8 -9 0 -7 53 3
69 10 18 13 13 9 -21z m-160 -14 c9 -24 2 -26 -12 -4 -7 11 -8 20 -3 20 5 0
12 -7 15 -16z m666 6 c0 -5 -2 -10 -4 -10 -3 0 -8 5 -11 10 -3 6 -1 10 4 10 6
0 11 -4 11 -10z m-571 -26 c10 6 21 -27 21 -62 0 -12 5 -31 10 -42 6 -11 14
-29 20 -40 14 -28 -2 -32 -27 -7 -15 17 -20 33 -18 64 3 52 -7 72 -28 55 -12
-10 -16 -9 -21 4 -13 33 -7 45 14 34 11 -6 24 -9 29 -6z m137 -22 c9 -14 8
-22 -3 -37 -9 -12 -13 -14 -11 -5 3 8 1 25 -3 38 -10 26 2 29 17 4z m-200 -19
c-7 -7 -26 7 -26 19 0 6 6 6 15 -2 9 -7 13 -15 11 -17z m-606 2 c0 -8 -2 -15
-4 -15 -2 0 -6 7 -10 15 -3 8 -1 15 4 15 6 0 10 -7 10 -15z m2983 -45 c-5 -19
-23 -29 -23 -12 0 7 20 32 26 32 1 0 0 -9 -3 -20z m-2852 -56 c-12 -16 -21
-21 -21 -13 0 21 33 65 38 51 2 -7 -6 -24 -17 -38z m679 22 c0 -3 -4 -8 -10
-11 -5 -3 -10 -1 -10 4 0 6 5 11 10 11 6 0 10 -2 10 -4z m2530 -16 c0 -5 -2
-10 -4 -10 -3 0 -8 5 -11 10 -3 6 -1 10 4 10 6 0 11 -4 11 -10z m-3090 -20 c0
-11 -7 -20 -15 -20 -15 0 -21 21 -8 33 12 13 23 7 23 -13z m510 11 c0 -6 -4
-13 -10 -16 -5 -3 -10 1 -10 9 0 9 5 16 10 16 6 0 10 -4 10 -9z m35 -48 c4
-21 9 -46 12 -55 3 -12 -1 -18 -11 -18 -11 0 -16 -9 -16 -29 0 -17 -4 -33 -10
-36 -6 -4 -10 6 -10 22 0 15 -4 42 -9 60 -10 35 -4 48 14 33 9 -8 14 -6 19 6
4 11 0 18 -13 21 -16 4 -17 8 -8 19 19 21 26 17 32 -23z m2585 -18 c11 -13 10
-14 -4 -9 -9 3 -16 10 -16 15 0 13 6 11 20 -6z m-3101 -48 c-19 -18 -39 -41
-43 -52 -6 -15 -9 -17 -16 -6 -9 16 -60 24 -60 10 0 -5 -4 -9 -10 -9 -5 0 -10
11 -10 25 0 29 3 30 35 9 15 -10 25 -12 25 -5 0 5 6 8 13 6 6 -3 30 10 52 29
50 43 63 36 14 -7z m583 11 c-7 -7 -12 -8 -12 -2 0 14 12 26 19 19 2 -3 -1
-11 -7 -17z m-512 2 c0 -5 -4 -10 -10 -10 -5 0 -10 5 -10 10 0 6 5 10 10 10 6
0 10 -4 10 -10z m-554 -47 c-10 -10 -19 5 -10 18 6 11 8 11 12 0 2 -7 1 -15
-2 -18z m506 2 c-3 -19 -1 -24 11 -20 20 8 28 -19 12 -42 -14 -17 -14 -17 -15
1 0 11 -3 17 -6 13 -4 -3 -13 1 -21 9 -13 13 -13 17 1 39 21 31 24 31 18 0z
m-197 -5 c3 -5 -1 -20 -9 -32 -16 -22 -16 -22 -16 10 0 31 12 42 25 22z m1979
-9 c3 -5 -3 -11 -15 -14 -16 -4 -18 -3 -8 9 13 16 16 17 23 5z m-2084 -22 c0
-5 -7 -9 -15 -9 -15 0 -20 12 -9 23 8 8 24 -1 24 -14z m827 -21 c-3 -7 -5 -2
-5 12 0 14 2 19 5 13 2 -7 2 -19 0 -25z m-797 12 c0 -5 -5 -10 -11 -10 -5 0
-7 5 -4 10 3 6 8 10 11 10 2 0 4 -4 4 -10z m230 0 c0 -5 -4 -10 -10 -10 -5 0
-10 5 -10 10 0 6 5 10 10 10 6 0 10 -4 10 -10z m181 -53 c-8 -8 -11 -4 -11 14
0 33 14 47 18 19 2 -12 -1 -27 -7 -33z m103 27 c3 -8 2 -12 -4 -9 -6 3 -10 10
-10 16 0 14 7 11 14 -7z m-621 -81 c1 -49 5 -69 14 -66 6 3 13 -6 15 -19 4
-30 32 -30 36 0 2 12 -2 22 -9 22 -8 0 -5 7 6 20 25 27 30 25 33 -12 2 -18 7
-37 12 -42 15 -15 12 -36 -5 -36 -8 0 -15 5 -15 10 0 6 -4 10 -10 10 -5 0 -10
-9 -10 -20 0 -11 -5 -20 -12 -20 -6 0 -3 -9 7 -20 26 -28 4 -25 -44 7 -24 16
-40 32 -37 40 3 7 1 13 -5 13 -6 0 -7 5 -3 11 3 6 7 31 8 55 1 42 0 44 -27 44
-24 0 -28 4 -25 22 2 13 12 24 26 28 13 3 23 8 23 13 -2 26 0 30 9 21 6 -6 12
-42 13 -81z m877 73 c0 -8 6 -21 14 -29 9 -9 11 -19 5 -28 -7 -11 -11 -10 -24
6 -14 19 -16 19 -29 3 -16 -22 -23 -22 -42 -3 -14 13 -14 17 0 30 20 20 24 19
29 -7 4 -24 7 -19 22 27 6 19 25 20 25 1z m-988 -18 c-7 -9 -6 -20 3 -38 14
-24 20 -60 11 -60 -2 0 -11 -3 -19 -6 -9 -3 -16 3 -20 15 -3 12 -1 21 4 21 5
0 9 9 9 19 0 14 -5 18 -20 14 -18 -5 -17 -2 7 25 25 29 49 38 25 10z m723 -39
c9 -16 11 -29 6 -29 -13 0 -41 40 -41 58 0 19 18 5 35 -29z m445 37 c0 -3 -4
-8 -10 -11 -5 -3 -10 -1 -10 4 0 6 5 11 10 11 6 0 10 -2 10 -4z m-940 -16 c0
-5 -4 -10 -10 -10 -5 0 -10 5 -10 10 0 6 5 10 10 10 6 0 10 -4 10 -10z m97
-10 c-7 -27 11 -25 23 3 7 18 8 15 7 -18 -2 -31 2 -40 16 -43 15 -3 18 0 12
17 -5 17 -3 20 11 14 11 -4 15 -3 10 5 -3 6 -1 14 5 17 16 10 22 -1 11 -22 -5
-10 -12 -31 -16 -48 l-6 -30 24 28 c14 15 27 27 29 27 2 0 0 -20 -6 -45 -10
-43 -28 -58 -42 -34 -5 6 -12 4 -20 -8 -10 -14 -16 -15 -28 -5 -8 7 -18 25
-22 40 -6 25 -8 25 -19 9 -7 -9 -19 -17 -26 -17 -16 0 -9 93 10 115 18 21 33
19 27 -5z m-157 3 c0 -5 -5 -15 -10 -23 -8 -12 -10 -11 -10 8 0 12 5 22 10 22
6 0 10 -3 10 -7z m619 -27 c-3 -3 -11 5 -18 17 -13 21 -12 21 5 5 10 -10 16
-20 13 -22z m-272 -14 c8 -5 8 -13 -1 -31 l-13 -24 -5 32 c-5 32 -1 36 19 23z
m133 -12 c-6 -12 -22 -37 -36 -57 -13 -20 -24 -45 -24 -57 0 -17 5 -14 25 17
14 20 30 37 34 37 13 0 20 -36 10 -51 -5 -8 -6 -22 -3 -31 3 -10 1 -18 -5 -18
-6 0 -11 6 -12 13 0 10 -2 10 -6 0 -2 -7 -16 -13 -29 -13 -22 0 -24 4 -24 44
0 34 7 53 35 90 38 48 53 60 35 26z m160 0 c0 -5 -2 -10 -4 -10 -3 0 -8 5 -11
10 -3 6 -1 10 4 10 6 0 11 -4 11 -10z m-560 -43 c0 -24 -3 -28 -10 -17 -13 20
-13 63 0 55 6 -3 10 -21 10 -38z m860 24 c12 18 22 6 14 -15 -5 -13 -9 -14
-20 -5 -8 6 -13 19 -13 28 1 12 2 11 6 -3 4 -15 7 -16 13 -5z m-620 -35 c5 -5
24 1 43 13 25 15 38 18 42 10 4 -6 2 -16 -4 -22 -6 -6 -11 -24 -11 -39 0 -34
-6 -35 -31 -5 l-18 22 -1 -30 -1 -30 -18 22 c-12 14 -17 31 -13 45 3 14 2 19
-6 14 -14 -8 -15 4 -5 31 7 17 8 17 11 -2 2 -11 8 -24 12 -29z m385 -81 c14
-33 19 -37 29 -25 15 21 50 19 54 -3 4 -21 -25 -34 -40 -19 -8 8 -15 8 -24 1
-9 -7 -14 -4 -19 13 -4 13 -18 45 -31 72 -15 31 -22 58 -18 70 6 17 9 12 19
-24 7 -25 20 -63 30 -85z m325 115 c0 -5 -4 -10 -10 -10 -5 0 -10 5 -10 10 0
6 5 10 10 10 6 0 10 -4 10 -10z m-1160 -20 c0 -5 -2 -10 -4 -10 -3 0 -8 5 -11
10 -3 6 -1 10 4 10 6 0 11 -4 11 -10z m1130 -56 c0 -13 -4 -24 -10 -24 -5 0
-10 9 -10 19 0 11 -3 28 -7 38 -6 16 -5 16 10 4 9 -7 17 -24 17 -37z m-1180
-24 c0 -27 -3 -50 -7 -50 -9 0 -15 68 -8 88 9 25 15 10 15 -38z m746 -23 c19
-11 18 -37 -1 -37 -8 0 -15 6 -15 14 0 8 -4 18 -10 21 -6 4 -8 -10 -6 -35 3
-26 1 -38 -7 -33 -6 4 -8 -2 -5 -15 6 -23 -2 -26 -49 -22 -15 1 -21 -3 -18
-12 6 -15 -31 -42 -46 -32 -6 3 -9 15 -6 25 3 11 1 19 -4 19 -5 0 -9 -7 -9
-16 0 -8 -4 -12 -10 -9 -5 3 -10 19 -10 35 0 35 25 46 56 25 42 -27 81 -11 50
21 -20 19 -20 25 -1 18 24 -10 54 36 48 71 l-5 30 17 -30 c9 -16 23 -34 31
-38z m-859 39 c-3 -8 1 -20 9 -26 8 -7 14 -19 14 -26 0 -8 10 -14 21 -14 16 0
20 5 16 20 -3 11 -1 20 4 20 5 0 9 -4 9 -8 0 -5 6 -17 14 -27 12 -16 16 -17
29 -6 14 11 15 8 11 -26 l-5 -38 16 25 c15 24 16 24 10 2 -4 -13 -1 -30 6 -38
17 -21 2 -30 -19 -11 -25 23 -35 21 -22 -3 9 -16 8 -22 -5 -26 -8 -4 -22 -1
-30 6 -12 10 -15 9 -15 -4 0 -9 -7 -16 -15 -16 -9 0 -15 9 -15 25 0 14 -4 25
-10 25 -16 0 -52 -90 -46 -116 7 -27 -9 -33 -17 -6 -3 9 -14 29 -23 44 -20 30
-13 48 11 28 9 -8 19 -9 24 -4 13 14 31 75 26 84 -3 5 -1 11 5 15 5 3 10 -1
10 -10 0 -9 5 -13 10 -10 19 12 10 34 -20 49 -28 14 -31 13 -41 -6 -8 -14 -8
-27 -1 -43 14 -31 -2 -46 -33 -31 -39 18 -51 102 -15 102 11 0 20 -4 20 -8 0
-21 22 -4 40 32 19 38 38 56 27 26z m205 -25 c-5 -3 -11 -14 -15 -23 -3 -10
-11 -18 -17 -18 -13 0 -13 36 1 62 11 21 12 21 25 3 8 -10 10 -21 6 -24z
m-165 -3 c-3 -8 -6 -5 -6 6 -1 11 2 17 5 13 3 -3 4 -12 1 -19z m353 -8 c0 -5
-4 -10 -10 -10 -5 0 -10 5 -10 10 0 6 5 10 10 10 6 0 10 -4 10 -10z m1140 -10
c0 -5 -4 -10 -10 -10 -5 0 -10 5 -10 10 0 6 5 10 10 10 6 0 10 -4 10 -10z
m-1280 -20 c0 -5 -4 -10 -10 -10 -5 0 -10 5 -10 10 0 6 5 10 10 10 6 0 10 -4
10 -10z m320 -71 c0 -68 -17 -62 -19 7 0 34 3 53 9 49 6 -3 10 -28 10 -56z
m-390 30 c0 -5 -4 -9 -10 -9 -5 0 -10 7 -10 16 0 8 5 12 10 9 6 -3 10 -10 10
-16z m100 11 c0 -5 -4 -10 -10 -10 -5 0 -10 5 -10 10 0 6 5 10 10 10 6 0 10
-4 10 -10z m827 -34 c11 -33 11 -37 -2 -32 -9 3 -15 -1 -15 -10 0 -9 -6 -14
-12 -11 -7 2 -13 11 -12 20 0 10 1 31 2 48 3 41 22 33 39 -15z m-489 22 c7 -7
12 -23 11 -37 l-1 -26 -11 28 c-6 15 -14 27 -19 27 -4 0 -8 5 -8 10 0 14 13
13 28 -2z m-136 -60 c-11 -23 -17 -26 -32 -18 -16 9 -19 6 -23 -22 -3 -27 -4
-24 -5 13 -1 25 -7 50 -14 57 -7 7 -8 12 -4 12 5 0 15 -8 22 -17 11 -16 13
-16 25 10 12 26 13 26 29 10 14 -15 14 -21 2 -45z m-592 43 c0 -6 -4 -13 -10
-16 -5 -3 -10 1 -10 9 0 9 5 16 10 16 6 0 10 -4 10 -9z m4595 -11 c3 -5 1 -10
-4 -10 -6 0 -11 5 -11 10 0 6 2 10 4 10 3 0 8 -4 11 -10z m0 -50 c0 -16 -6
-25 -15 -25 -9 0 -14 7 -12 18 2 10 -3 17 -13 17 -8 0 -15 -7 -15 -15 0 -8 -9
-15 -20 -15 -11 0 -20 4 -20 9 0 15 44 39 70 37 19 -1 25 -7 25 -26z m-4205
-4 c0 -30 -15 -42 -24 -20 -10 27 -7 44 9 44 9 0 15 -9 15 -24z m624 -18 c15
-18 26 -44 26 -61 0 -15 5 -37 11 -48 5 -11 9 -28 7 -37 -2 -9 -16 15 -32 53
-16 39 -35 77 -43 86 -15 18 -17 39 -4 39 4 0 20 -14 35 -32z m-994 -30 c22
-46 25 -62 10 -53 -5 3 -24 -1 -42 -9 -39 -17 -68 -17 -68 -1 0 6 -10 11 -22
11 -18 -1 -22 5 -23 34 -2 31 1 35 21 35 16 0 24 -6 24 -17 0 -10 2 -18 4 -18
2 0 11 -3 20 -6 11 -4 16 -1 16 10 0 9 4 16 9 16 5 0 11 9 14 20 7 29 14 25
37 -22z m4474 -17 c-5 -23 -9 -29 -15 -20 -10 19 1 73 12 62 5 -5 6 -24 3 -42z
m730 34 c3 -9 0 -15 -9 -15 -8 0 -15 7 -15 15 0 8 4 15 9 15 5 0 11 -7 15 -15z
m-4774 -38 c0 -20 -25 1 -28 24 -2 23 -2 23 13 5 8 -11 15 -24 15 -29z m800
-26 c0 -11 7 -7 24 14 20 25 26 28 40 16 9 -7 16 -26 16 -42 0 -23 5 -29 21
-29 18 0 20 -4 14 -32 -9 -41 -18 -51 -51 -54 -24 -3 -25 -2 -10 15 17 19 22
86 7 96 -13 8 -24 -30 -16 -57 4 -16 3 -19 -3 -10 -5 8 -13 12 -18 10 -13 -5
-42 54 -49 102 l-6 45 15 -29 c9 -15 16 -36 16 -45z m-1082 34 c-3 -3 -9 2
-12 12 -6 14 -5 15 5 6 7 -7 10 -15 7 -18z m316 9 c9 -24 7 -28 -9 -14 -17 14
-20 30 -6 30 5 0 12 -7 15 -16z m-19 -101 c8 -3 15 -12 15 -20 0 -13 -3 -13
-15 -3 -9 7 -18 10 -22 6 -3 -3 -2 -6 4 -6 6 0 9 -8 6 -19 -2 -10 2 -25 11
-33 8 -9 13 -18 10 -21 -8 -7 -54 14 -54 25 0 4 -8 8 -17 9 -11 0 -13 3 -5 6
8 3 5 10 -10 23 -19 16 -21 21 -9 32 9 9 15 10 18 2 2 -6 11 -20 19 -30 14
-18 14 -17 9 14 -4 18 -13 45 -21 60 -24 46 -16 47 16 3 17 -23 37 -44 45 -48z
m160 67 c3 -5 1 -10 -4 -10 -6 0 -11 5 -11 10 0 6 2 10 4 10 3 0 8 -4 11 -10z
m-105 -41 c0 -6 -4 -7 -10 -4 -5 3 -10 11 -10 16 0 6 5 7 10 4 6 -3 10 -11 10
-16z m610 -41 c0 -16 -3 -28 -7 -28 -11 0 -33 50 -33 72 0 17 1 17 20 1 11
-10 20 -30 20 -45z m-230 48 c0 -3 -4 -8 -10 -11 -5 -3 -10 -1 -10 4 0 6 5 11
10 11 6 0 10 -2 10 -4z m-840 -31 c0 -14 -4 -25 -10 -25 -5 0 -10 4 -10 9 0 5
-3 16 -6 25 -4 11 -1 16 10 16 10 0 16 -9 16 -25z m4520 5 c0 -11 -4 -20 -9
-20 -5 0 -7 9 -4 20 3 11 7 20 9 20 2 0 4 -9 4 -20z m-4638 -30 c3 -16 1 -30
-4 -30 -13 0 -27 -44 -17 -55 12 -16 -7 -39 -26 -31 -14 5 -15 9 -5 21 15 18
7 19 -21 5 -13 -8 -19 -7 -19 0 0 7 -6 8 -19 0 -24 -12 -31 -13 -31 -1 0 5 15
16 33 25 25 12 27 16 12 16 -18 1 -18 2 3 10 24 10 29 25 10 36 -12 8 61 45
73 38 4 -2 9 -17 11 -34z m993 29 c11 -16 1 -19 -13 -3 -7 8 -8 14 -3 14 5 0
13 -5 16 -11z m1305 -16 c0 -9 -3 -13 -7 -10 -3 4 -13 1 -21 -6 -9 -6 -13 -7
-10 -2 2 6 8 18 11 28 8 21 27 14 27 -10z m-1910 -20 c0 -20 -16 -8 -23 17 -4
17 -3 19 9 9 8 -6 14 -18 14 -26z m-340 10 c-1 -10 -10 -36 -20 -58 l-20 -40
6 40 c8 58 14 75 25 75 5 0 9 -8 9 -17z m940 -13 c0 -5 -2 -10 -4 -10 -3 0 -8
5 -11 10 -3 6 -1 10 4 10 6 0 11 -4 11 -10z m3635 -42 c2 -24 -2 -46 -9 -50
-8 -6 -7 -8 2 -8 7 0 12 -13 12 -30 0 -17 7 -33 18 -39 15 -9 15 -10 -4 -11
-12 0 -25 -7 -28 -16 -3 -8 -2 -12 4 -9 20 12 32 -7 13 -21 -16 -12 -16 -15
-3 -24 10 -6 11 -10 3 -10 -7 0 -13 -11 -13 -24 0 -14 -5 -28 -10 -31 -7 -4
-7 -11 -2 -18 12 -16 13 -106 1 -113 -10 -6 14 -34 29 -34 6 0 13 -7 16 -16 3
-8 10 -12 16 -9 5 3 10 -3 10 -15 0 -12 -4 -19 -9 -15 -5 3 -12 1 -15 -4 -4
-5 -2 -12 4 -16 6 -4 8 -10 5 -15 -6 -10 23 -35 32 -26 3 3 7 14 9 24 4 33 16
62 26 62 5 0 8 5 6 11 -2 7 5 22 16 34 18 21 21 21 50 6 l31 -16 -27 -3 c-19
-2 -28 -9 -27 -20 0 -11 3 -12 6 -4 2 6 13 12 24 12 17 0 18 -3 9 -20 -6 -11
-17 -20 -25 -20 -15 0 -30 -35 -20 -50 3 -5 12 -10 18 -10 7 0 6 4 -3 10 -13
9 -13 10 0 10 13 0 13 1 0 10 -10 7 -11 10 -2 10 12 0 21 -15 26 -42 1 -7 6
-20 11 -28 11 -17 15 -36 17 -68 0 -12 4 -24 8 -27 13 -8 -2 -55 -21 -65 -10
-6 -38 -8 -61 -6 -24 3 -35 3 -25 0 19 -6 20 -18 10 -89 -5 -42 -12 -51 -62
-91 -52 -41 -56 -43 -63 -23 -8 22 -28 17 -28 -7 0 -11 -6 -13 -19 -9 -27 8
-41 -21 -41 -84 0 -47 -2 -51 -24 -51 -19 0 -27 9 -40 40 -22 55 -21 73 4 65
34 -11 22 13 -20 40 -22 14 -44 25 -49 25 -5 0 -30 18 -56 39 -26 21 -67 49
-90 61 -24 12 -59 35 -77 51 l-33 28 80 0 c44 0 98 -6 120 -14 50 -18 55 -18
55 -2 0 25 -82 90 -142 113 -10 3 -18 10 -18 15 0 17 30 21 73 11 90 -23 60
30 -58 102 -53 33 -47 32 -132 21 -54 -6 -63 -5 -63 9 0 19 69 56 104 56 66 0
74 30 16 56 -23 10 -40 25 -40 34 0 24 -10 31 -31 19 -23 -12 -24 -6 -3 15 18
19 10 37 -14 30 -14 -5 -14 -3 2 10 11 9 23 16 28 16 4 0 8 5 8 10 0 6 -6 10
-14 10 -8 0 -16 6 -18 12 -5 14 -58 -15 -58 -32 0 -6 -5 -10 -12 -10 -17 0 31
49 56 56 12 4 28 13 38 21 11 10 18 11 23 4 3 -6 -1 -11 -9 -11 -8 0 -17 -3
-19 -7 -3 -5 5 -8 18 -8 13 0 21 3 18 8 -2 4 1 7 6 7 6 0 10 10 8 21 -1 12 5
24 13 27 13 5 13 3 1 -11 -19 -24 -1 -21 26 4 18 18 25 20 38 9 8 -7 21 -10
28 -7 7 3 21 -1 31 -9 11 -7 23 -11 28 -8 5 3 22 3 39 -1 28 -6 29 -9 23 -41
-4 -22 -2 -34 5 -34 7 0 8 -8 1 -24 -6 -16 -5 -29 4 -42 7 -11 19 -36 26 -57
16 -51 33 -55 69 -15 32 35 37 57 21 88 -6 12 -7 21 0 25 5 3 6 13 3 22 -5 13
-1 15 20 11 44 -9 51 7 13 30 -50 30 -56 62 -20 115 16 23 32 44 37 45 4 2 4
8 1 13 -3 6 -1 15 4 22 5 7 12 25 16 41 9 38 18 27 21 -26z m-4549 9 c7 -16 7
-32 1 -48 l-10 -24 -7 30 c-16 64 -6 89 16 42z m2228 8 c-4 -8 -10 -12 -15 -9
-11 6 -2 24 11 24 5 0 7 -7 4 -15z m-1981 -54 c1 -9 7 -22 12 -30 7 -12 10
-11 15 4 5 15 13 7 39 -38 18 -32 41 -62 52 -67 27 -15 24 -30 -7 -30 -14 0
-23 -4 -19 -10 3 -5 1 -10 -4 -10 -6 0 -11 -4 -11 -10 0 -5 7 -10 15 -10 8 0
15 4 15 9 0 12 49 -1 52 -13 2 -6 -12 -14 -29 -18 -38 -10 -41 -20 -13 -55 29
-37 15 -42 -20 -8 -17 16 -30 24 -30 17 0 -6 11 -19 25 -28 26 -17 29 -38 7
-40 -7 -1 -16 -2 -22 -3 -14 -2 -12 -39 3 -44 6 -2 9 -7 6 -11 -3 -3 -15 3
-27 14 -25 24 -36 26 -28 5 3 -8 1 -15 -4 -15 -14 0 -41 57 -34 74 3 8 0 24
-6 36 -9 16 -9 20 -1 15 8 -5 10 1 5 21 -4 17 -3 25 3 21 15 -9 4 84 -12 103
-19 21 -35 89 -24 96 5 3 9 20 9 38 0 18 3 36 7 40 7 7 21 -22 26 -53z m252
49 c3 -5 1 -10 -4 -10 -6 0 -11 5 -11 10 0 6 2 10 4 10 3 0 8 -4 11 -10z m268
-4 c9 1 15 -1 12 -6 -3 -4 2 -10 10 -14 21 -8 19 -26 -4 -26 -16 0 -18 -5 -14
-40 4 -26 2 -40 -6 -40 -6 0 -11 9 -11 19 0 11 -4 23 -10 26 -5 3 -10 1 -10
-5 0 -6 -5 -8 -12 -4 -9 6 -9 9 0 12 7 2 12 10 12 18 0 8 7 17 15 20 8 4 15
10 15 15 0 5 -7 9 -15 9 -8 0 -15 8 -15 18 0 10 3 13 8 6 4 -6 15 -10 25 -8z
m-418 -7 c11 -17 -1 -21 -15 -4 -8 9 -8 15 -2 15 6 0 14 -5 17 -11z m1052 -41
c-3 -10 -1 -16 3 -13 5 3 11 1 15 -5 3 -5 -1 -10 -9 -10 -8 0 -19 -8 -25 -17
-5 -10 -11 -16 -13 -13 -16 20 -48 69 -48 75 0 3 9 3 20 0 16 -5 20 -2 20 16
0 22 0 22 21 3 11 -10 18 -26 16 -36z m4642 31 c-11 -11 -23 -18 -27 -15 -3 4
3 13 14 21 28 22 37 18 13 -6z m-5762 -21 c-3 -7 -5 -2 -5 12 0 14 2 19 5 13
2 -7 2 -19 0 -25z m443 16 c0 -17 -22 -14 -28 4 -2 7 3 12 12 12 9 0 16 -7 16
-16z m-315 -14 c10 -12 25 -18 33 -15 8 3 26 -7 41 -21 15 -16 21 -29 15 -31
-13 -4 -9 -60 6 -78 15 -18 -22 -12 -53 8 -15 9 -31 17 -37 17 -5 0 -10 5 -10
10 0 6 -8 10 -18 10 -38 0 -66 88 -30 98 10 2 18 8 18 13 0 15 16 10 35 -11z
m275 5 c7 -9 10 -18 7 -22 -8 -7 -37 15 -37 28 0 14 16 11 30 -6z m791 -49
c-12 -14 4 -36 26 -36 16 0 16 -2 1 -35 -14 -31 -6 -40 21 -23 18 11 23 11 31
-2 7 -11 9 -8 7 12 -1 15 1 27 6 27 4 1 7 -2 8 -6 0 -5 12 -14 26 -21 21 -12
24 -18 19 -45 -3 -17 -14 -39 -23 -49 -13 -14 -14 -23 -5 -40 l11 -23 0 26 c1
14 8 34 16 45 14 19 14 19 15 -3 0 -16 5 -20 19 -16 14 3 22 -5 34 -35 19 -48
32 -58 45 -36 8 14 11 11 21 -16 9 -27 13 -30 25 -20 11 8 20 9 33 1 10 -6 12
-11 6 -11 -8 0 -13 -14 -13 -35 0 -40 -17 -47 -26 -10 -3 14 -10 25 -15 25
-14 0 -11 -18 8 -46 14 -22 14 -27 2 -35 -23 -14 -34 -5 -37 32 -5 59 -11 67
-31 40 l-18 -23 -13 31 c-12 29 -14 30 -26 14 -12 -17 -14 -17 -29 2 -9 11
-21 33 -27 48 -8 23 -13 26 -25 15 -13 -10 -21 -6 -49 25 -21 22 -34 47 -34
63 0 19 -4 25 -15 20 -9 -3 -15 1 -15 11 0 12 -3 13 -15 3 -12 -10 -14 -3 -11
56 3 47 9 71 20 79 9 7 16 19 16 27 0 8 3 18 8 22 11 12 15 -44 3 -58z m-931
33 c0 -6 -4 -7 -10 -4 -5 3 -10 11 -10 16 0 6 5 7 10 4 6 -3 10 -11 10 -16z
m1653 6 c-3 -9 -8 -14 -10 -11 -3 3 -2 9 2 15 9 16 15 13 8 -4z m1937 6 c0 -5
-7 -14 -15 -21 -12 -10 -15 -10 -15 2 0 8 3 18 7 21 9 10 23 9 23 -2z m966
-38 c-17 -131 -21 -148 -36 -148 -16 0 -16 1 -6 108 5 57 18 87 38 87 7 0 8
-18 4 -47z m-4453 23 c6 -16 -2 -28 -14 -20 -12 7 -11 34 0 34 5 0 11 -6 14
-14z m-713 -33 c0 -20 -3 -24 -11 -16 -7 7 -9 19 -6 27 10 24 17 19 17 -11z
m652 17 c25 -12 75 -80 58 -80 -5 0 -10 4 -10 10 0 13 -71 60 -82 54 -4 -3 -5
2 -2 10 7 19 7 19 36 6z m5428 4 c0 -10 -104 -110 -122 -116 -9 -4 -19 -4 -22
0 -8 7 54 72 69 72 6 0 21 11 33 25 20 23 42 33 42 19z m-5171 -26 c8 -21 -5
-58 -20 -58 -7 0 -29 46 -29 60 0 19 21 10 31 -12 9 -21 9 -21 4 5 -6 33 2 36
14 5z m481 5 c8 -10 14 -25 14 -33 -1 -8 -2 -21 -3 -29 -2 -22 -15 -4 -27 40
-13 42 -7 49 16 22z m2775 7 c3 -5 1 -10 -4 -10 -6 0 -11 5 -11 10 0 6 2 10 4
10 3 0 8 -4 11 -10z m-2330 -20 c-3 -5 -11 -10 -16 -10 -6 0 -7 5 -4 10 3 6
11 10 16 10 6 0 7 -4 4 -10z m485 0 c0 -5 -5 -10 -11 -10 -5 0 -7 5 -4 10 3 6
8 10 11 10 2 0 4 -4 4 -10z m-2331 -24 c8 -10 9 -16 1 -21 -13 -8 -30 3 -30
21 0 18 14 18 29 0z m2366 -6 c3 -5 2 -10 -4 -10 -5 0 -13 5 -16 10 -3 6 -2
10 4 10 5 0 13 -4 16 -10z m1857 -12 c-7 -7 -12 -8 -12 -2 0 14 12 26 19 19 2
-3 -1 -11 -7 -17z m-4172 2 c0 -5 -4 -10 -10 -10 -5 0 -10 5 -10 10 0 6 5 10
10 10 6 0 10 -4 10 -10z m40 -20 c0 -33 -15 -41 -22 -12 -6 21 1 42 13 42 5 0
9 -13 9 -30z m1400 20 c0 -5 -2 -10 -4 -10 -3 0 -8 5 -11 10 -3 6 -1 10 4 10
6 0 11 -4 11 -10z m525 0 c-3 -5 -13 -10 -21 -10 -8 0 -12 5 -9 10 3 6 13 10
21 10 8 0 12 -4 9 -10z m4165 6 c0 -11 -19 -15 -25 -6 -3 5 1 10 9 10 9 0 16
-2 16 -4z m-5310 -51 c22 -7 23 -6 11 9 -19 23 -8 30 21 15 12 -7 29 -12 36
-11 6 2 12 -2 12 -7 0 -5 9 -12 19 -16 11 -3 23 -15 26 -26 4 -10 12 -19 18
-19 12 0 37 -36 70 -100 l18 -35 -3 48 c-4 62 15 61 31 -2 17 -65 30 -82 69
-83 18 -1 32 -5 32 -10 0 -4 6 -8 14 -8 8 0 16 -7 20 -15 3 -8 12 -15 20 -15
15 0 46 -52 46 -76 0 -8 11 -16 24 -20 13 -3 29 -18 36 -32 32 -70 39 -77 79
-86 28 -6 41 -14 40 -25 0 -10 -2 -12 -6 -3 -2 6 -11 12 -19 12 -9 0 -4 -13
15 -42 16 -24 27 -46 24 -51 -2 -4 1 -14 7 -22 6 -8 9 -18 6 -24 -3 -5 -3 -17
0 -26 11 -26 34 30 27 65 -4 22 -1 31 11 36 24 9 32 -4 18 -26 -10 -17 -10
-20 3 -20 8 0 15 -7 15 -15 0 -8 -4 -15 -10 -15 -5 0 -10 -18 -10 -40 0 -29 4
-40 15 -40 8 0 15 -7 15 -15 0 -8 9 -15 20 -15 13 0 18 -5 14 -15 -5 -11 -2
-13 10 -9 24 9 21 -32 -4 -53 -11 -9 -15 -20 -10 -23 13 -8 0 -50 -16 -50 -17
0 -19 17 -3 22 8 3 5 10 -6 22 -16 15 -17 23 -7 50 16 42 15 55 -2 33 -13 -17
-15 -16 -46 9 -22 19 -30 34 -28 49 5 24 -23 58 -30 37 -9 -29 -20 -7 -25 56
-9 104 -9 104 -83 97 -56 -5 -65 -4 -71 12 -3 10 -23 35 -45 56 -38 38 -50 77
-23 77 9 0 12 6 9 15 -4 8 -10 12 -15 9 -5 -3 -9 6 -9 20 0 14 -4 26 -10 26
-5 0 -10 6 -10 14 0 8 -5 18 -11 22 -8 4 -9 -1 -4 -16 5 -15 4 -20 -4 -16 -6
4 -11 13 -11 20 0 27 -41 66 -69 66 -36 0 -131 96 -131 132 0 29 -26 68 -46
68 -22 0 -17 -29 11 -62 27 -32 32 -48 14 -48 -19 0 -57 47 -64 80 -5 21 -12
30 -23 29 -30 -5 -59 11 -70 37 -17 36 -14 42 6 18 10 -12 29 -25 42 -29z
m1088 -13 c-3 -14 -7 -12 -22 10 -21 33 -11 60 11 29 8 -12 13 -29 11 -39z
m-2068 8 c-8 -16 -8 -20 2 -18 8 2 12 -5 10 -21 -4 -29 -21 -47 -48 -53 -12
-2 -18 -11 -16 -23 2 -15 0 -16 -6 -7 -11 16 8 63 22 55 5 -4 6 1 3 11 -4 10
-7 22 -7 27 0 6 -4 7 -10 4 -6 -4 -10 6 -10 22 1 24 2 26 11 10 10 -16 12 -16
32 9 23 29 35 18 17 -16z m1160 30 c0 -5 -4 -10 -10 -10 -5 0 -10 5 -10 10 0
6 5 10 10 10 6 0 10 -4 10 -10z m-1010 -47 c0 -22 -16 -14 -28 12 -11 23 -10
24 8 13 11 -7 20 -18 20 -25z m2610 12 l23 -24 -39 4 c-21 2 -41 4 -43 4 -4 1
30 41 34 41 1 0 12 -11 25 -25z m-2910 -3 c0 -5 -7 -9 -15 -9 -8 0 -12 4 -9 9
3 4 9 8 15 8 5 0 9 -4 9 -8z m1340 -2 c0 -5 -4 -10 -9 -10 -6 0 -13 5 -16 10
-3 6 1 10 9 10 9 0 16 -4 16 -10z m3717 -22 c-3 -8 -6 -5 -6 6 -1 11 2 17 5
13 3 -3 4 -12 1 -19z m-3307 -8 c0 -11 6 -23 14 -26 20 -8 16 -42 -5 -47 -29
-8 -38 6 -32 51 6 43 23 59 23 22z m1670 -5 c13 -14 21 -25 18 -25 -8 0 -48
36 -48 44 0 10 6 7 30 -19z m-2057 0 c0 -6 -7 -11 -16 -13 -12 -3 -15 1 -11
13 7 17 25 17 27 0z m842 5 c3 -5 1 -10 -4 -10 -6 0 -11 5 -11 10 0 6 2 10 4
10 3 0 8 -4 11 -10z m231 -22 c4 -5 -6 -8 -22 -6 -15 2 -29 8 -31 14 -5 14 44
6 53 -8z m164 2 c0 -21 -15 -27 -25 -10 -3 6 -1 10 5 10 6 0 8 5 5 10 -3 6 -1
10 4 10 6 0 11 -9 11 -20z m770 10 c0 -5 -4 -10 -10 -10 -5 0 -10 5 -10 10 0
6 5 10 10 10 6 0 10 -4 10 -10z m-2986 -12 c16 -17 27 -48 17 -48 -8 0 -41 44
-41 55 0 9 11 6 24 -7z m536 8 c0 -3 -4 -8 -10 -11 -5 -3 -10 -1 -10 4 0 6 5
11 10 11 6 0 10 -2 10 -4z m2560 0 c0 -3 -4 -8 -10 -11 -5 -3 -10 -1 -10 4 0
6 5 11 10 11 6 0 10 -2 10 -4z m-3416 -60 c-3 -14 -11 -26 -16 -26 -6 0 -8 10
-4 23 3 12 6 29 6 37 0 10 3 11 11 3 5 -5 7 -22 3 -37z m3281 34 c3 -5 2 -10
-4 -10 -5 0 -13 5 -16 10 -3 6 -2 10 4 10 5 0 13 -4 16 -10z m1712 -10 c-3
-11 -2 -20 2 -20 13 0 5 -37 -11 -54 -22 -21 -46 -22 -28 -1 6 8 9 19 6 24 -4
5 -2 12 4 16 6 4 8 11 4 16 -3 5 0 16 6 24 17 21 23 19 17 -5z m-5027 -6 c0
-8 -4 -12 -10 -9 -5 3 -10 10 -10 16 0 5 5 9 10 9 6 0 10 -7 10 -16z m3647 -6
c-3 -8 -6 -5 -6 6 -1 11 2 17 5 13 3 -3 4 -12 1 -19z m64 -19 c-5 -13 -10 -19
-10 -12 -1 15 10 45 15 40 3 -2 0 -15 -5 -28z m-3384 6 c9 -25 -4 -29 -17 -6
-7 15 -7 21 0 21 6 0 13 -7 17 -15z m2553 -11 c0 -8 -4 -14 -9 -14 -11 0 -22
26 -14 34 9 9 23 -3 23 -20z m403 -4 c22 -26 22 -26 -12 -33 -18 -4 -32 -14
-36 -28 -8 -23 -19 -16 -30 19 -6 20 -4 22 18 17 14 -4 28 -2 31 4 5 7 -2 11
-15 11 -18 0 -19 2 -9 15 17 20 32 19 53 -5z m40 5 c-3 -9 -8 -14 -10 -11 -3
3 -2 9 2 15 9 16 15 13 8 -4z m260 -44 c-3 -12 -10 -21 -15 -21 -6 0 -8 10 -4
23 3 12 6 31 6 42 1 19 2 19 10 -2 5 -11 6 -30 3 -42z m-1833 24 c9 6 9 2 1
-14 -8 -14 -9 -27 -2 -39 10 -19 2 -74 -10 -69 -3 1 -13 -4 -22 -12 -15 -12
-17 -11 -17 6 0 10 -9 36 -20 58 -31 61 -3 115 42 77 9 -8 22 -11 28 -7z
m3480 -7 c0 -6 -7 -5 -15 2 -8 7 -15 17 -15 22 0 6 7 5 15 -2 8 -7 15 -17 15
-22z m-5150 -24 c0 -13 6 -24 13 -24 9 0 8 -3 -2 -9 -7 -5 -10 -14 -7 -20 4
-6 1 -11 -6 -11 -9 0 -9 -3 2 -10 18 -12 50 -3 68 19 11 14 12 13 7 -9 -4 -14
-15 -32 -26 -42 -25 -21 -24 -32 2 -25 20 5 21 3 16 -33 -3 -22 0 -43 7 -51 8
-9 8 -10 0 -6 -12 7 -24 -22 -24 -60 0 -19 4 -22 29 -17 24 5 29 2 34 -18 10
-34 8 -68 -2 -68 -5 0 -9 6 -8 13 1 30 -4 47 -13 47 -5 0 -10 -25 -10 -55 0
-56 17 -79 48 -68 20 7 50 -25 58 -61 3 -17 13 -40 20 -51 8 -11 14 -27 14
-37 0 -10 3 -18 8 -18 11 0 45 -80 48 -115 2 -16 7 -50 12 -75 l8 -45 18 27
c15 23 21 25 41 16 l23 -10 -24 -42 c-29 -50 -30 -60 -4 -46 11 6 24 8 29 5 5
-3 12 4 16 15 11 33 35 24 35 -13 0 -18 -4 -37 -9 -42 -4 -6 -15 -32 -24 -58
-16 -47 -16 -48 3 -42 18 6 19 3 13 -27 -6 -32 -5 -32 13 -17 53 45 78 23 49
-42 -22 -49 -16 -57 19 -24 26 24 28 24 44 8 10 -10 12 -18 6 -20 -6 -2 -9
-18 -7 -36 l3 -32 -10 33 c-6 17 -14 32 -19 32 -14 0 -20 -152 -7 -185 l12
-30 19 63 19 62 23 -27 c12 -16 22 -36 23 -45 0 -10 11 -25 25 -34 20 -13 23
-22 18 -42 -4 -17 -2 -23 6 -18 6 4 18 0 27 -9 15 -15 18 -14 39 5 23 21 23
22 34 2 8 -14 5 -28 -10 -57 -11 -20 -18 -39 -15 -42 2 -3 12 9 21 26 16 31
29 39 39 22 3 -5 -1 -12 -9 -15 -12 -4 -13 -10 -5 -25 15 -29 12 -41 -10 -41
-11 0 -20 -7 -20 -15 0 -8 -9 -15 -21 -15 -11 0 -18 -4 -15 -9 8 -13 -17 -71
-31 -71 -7 0 -13 -7 -13 -15 0 -8 -5 -15 -10 -15 -6 0 -14 -8 -17 -17 -4 -9
-14 -24 -22 -34 -9 -10 -27 -32 -41 -49 -23 -28 -28 -30 -67 -24 -33 5 -43 3
-43 -7 0 -8 -12 -22 -26 -33 -22 -15 -32 -17 -60 -8 -27 8 -34 7 -34 -3 0 -37
-42 -27 -188 42 -51 25 -105 46 -119 47 -32 4 -63 39 -63 72 0 38 -21 74 -44
74 -22 0 -54 41 -76 98 -10 25 -15 30 -26 21 -11 -9 -16 -1 -25 36 -7 28 -15
42 -19 35 -5 -8 -11 4 -15 29 -8 47 -20 53 -29 15 -12 -47 -31 -18 -57 87 -22
93 -26 102 -37 82 -7 -12 -12 -31 -12 -42 0 -14 -6 -21 -19 -21 -22 0 -26 10
-40 99 -6 35 -12 66 -15 68 -2 3 -10 -8 -18 -23 -16 -34 -31 -40 -50 -20 -17
17 -32 175 -22 237 4 26 3 39 -5 39 -6 0 -11 6 -11 13 0 6 -9 23 -19 36 -14
19 -17 32 -10 59 9 43 3 55 -23 49 -15 -4 -22 0 -26 15 -5 19 -6 19 -17 4 -18
-23 -35 1 -37 50 0 22 -7 47 -16 56 -9 11 -15 41 -16 83 -1 43 -5 64 -12 61
-7 -3 -12 18 -13 61 -1 55 1 64 12 55 8 -7 17 -9 20 -5 4 3 7 -1 7 -9 0 -9 6
-18 13 -21 8 -3 14 -19 15 -37 1 -57 13 -92 28 -86 8 3 14 -1 14 -9 0 -19 -9
-19 -29 -1 -10 10 -22 12 -30 6 -12 -7 -11 -12 5 -32 11 -14 24 -23 31 -21 6
2 14 -1 18 -6 3 -6 15 -11 25 -11 10 0 26 -10 34 -22 14 -19 16 -19 22 -5 7
18 34 24 34 7 0 -18 22 -10 27 10 3 11 9 20 14 20 14 0 11 28 -3 33 -7 3 -3 6
10 6 12 1 22 6 22 11 0 6 -10 10 -22 11 -23 0 -22 1 2 12 31 15 80 57 80 69 0
5 7 16 15 24 8 9 15 23 15 32 0 9 18 27 39 39 38 22 39 22 56 3 21 -23 40 -26
32 -6 -4 10 -1 13 9 9 7 -3 14 -9 14 -14 0 -5 9 -9 20 -9 11 0 20 4 20 8 0 5
11 15 25 22 14 7 25 19 25 25 0 18 37 48 49 40 17 -10 13 11 -4 25 -8 7 -15
16 -15 20 0 10 62 36 75 32 6 -2 5 2 -2 9 -6 6 -9 18 -6 25 3 8 0 14 -6 14 -6
0 -11 5 -11 10 0 6 7 10 16 10 8 0 13 4 9 9 -9 16 -13 71 -4 71 5 0 6 7 2 16
-4 10 -13 14 -26 10 -11 -2 -27 2 -35 11 -15 14 -14 15 5 9 12 -4 25 -1 32 8
17 21 41 9 41 -20z m775 26 c3 -5 2 -10 -4 -10 -5 0 -13 5 -16 10 -3 6 -2 10
4 10 5 0 13 -4 16 -10z m1565 -11 c0 -15 -5 -19 -15 -15 -8 3 -15 0 -15 -6 0
-9 -3 -9 -12 0 -8 8 -8 15 2 27 18 22 40 19 40 -6z m-987 -3 c4 -10 1 -13 -9
-9 -15 6 -19 23 -5 23 5 0 11 -7 14 -14z m1179 -10 c7 4 8 2 4 -5 -9 -14 -36
3 -36 23 0 6 5 3 11 -7 6 -9 15 -14 21 -11z m308 -22 c0 -1 -15 -1 -32 1 -18
1 -33 8 -32 14 1 6 2 16 3 21 1 8 61 -27 61 -36z m730 36 c0 -5 -5 -10 -11
-10 -5 0 -7 5 -4 10 3 6 8 10 11 10 2 0 4 -4 4 -10z m-170 -20 c0 -5 -4 -10
-10 -10 -5 0 -10 5 -10 10 0 6 5 10 10 10 6 0 10 -4 10 -10z m40 0 c0 -5 -5
-10 -11 -10 -5 0 -7 5 -4 10 3 6 8 10 11 10 2 0 4 -4 4 -10z m-1325 -10 c3 -5
1 -10 -4 -10 -6 0 -11 5 -11 10 0 6 2 10 4 10 3 0 8 -4 11 -10z m1545 -10 c0
-5 -4 -10 -10 -10 -5 0 -10 5 -10 10 0 6 5 10 10 10 6 0 10 -4 10 -10z m-2935
-9 c10 -17 -12 -21 -25 -6 -10 12 -10 15 3 15 9 0 18 -4 22 -9z m1849 -22
c-10 -16 -24 -9 -24 12 0 18 2 19 15 9 8 -7 12 -16 9 -21z m796 23 c0 -4 -7
-18 -16 -30 -15 -22 -17 -22 -29 -5 -11 14 -10 19 4 30 18 14 41 17 41 5z
m122 -14 c-7 -7 -12 -8 -12 -2 0 6 3 14 7 17 3 4 9 5 12 2 2 -3 -1 -11 -7 -17z
m-3019 -48 c-5 -6 -42 41 -43 55 0 6 11 -3 24 -20 13 -16 22 -32 19 -35z
m1617 40 c0 -11 4 -20 9 -20 5 0 11 -10 15 -22 5 -20 8 -21 17 -8 8 12 9 10 4
-9 -5 -17 -4 -22 6 -19 9 3 13 16 11 33 -3 26 10 45 33 45 6 0 4 -4 -4 -9 -10
-7 -8 -12 10 -25 13 -9 29 -16 36 -16 7 0 10 -6 7 -14 -4 -10 0 -13 13 -10 11
3 28 -5 42 -20 20 -21 22 -28 11 -41 -7 -9 -8 -15 -2 -15 6 0 12 6 15 13 3 9
8 9 17 1 9 -9 7 -15 -8 -25 -11 -8 -21 -22 -23 -31 -4 -15 -7 -16 -29 -5 -14
7 -25 19 -26 27 -3 51 -27 95 -46 84 -12 -8 -10 -21 9 -39 14 -14 14 -18 2
-26 -9 -6 -18 -4 -25 6 -7 10 -14 11 -21 4 -7 -7 -17 -2 -31 15 -14 18 -22 22
-25 14 -4 -9 -6 -7 -6 3 -1 23 -27 70 -34 63 -3 -4 -3 -20 0 -37 4 -20 3 -28
-4 -24 -17 11 -25 58 -13 73 7 7 9 18 5 25 -4 6 -1 15 6 20 22 14 29 11 29
-11z m-1098 -7 c16 -22 48 -29 48 -11 0 10 12 12 43 9 34 -3 38 -5 21 -11 -12
-5 -24 -15 -27 -24 -5 -12 -17 -14 -59 -9 -50 5 -92 23 -55 23 20 0 22 11 5
28 -9 9 -9 12 -1 12 7 0 18 -8 25 -17z m2128 -4 c0 -5 -7 -9 -15 -9 -8 0 -15
7 -15 15 0 9 6 12 15 9 8 -4 15 -10 15 -15z m1695 11 c3 -5 -1 -10 -9 -10 -9
0 -16 5 -16 10 0 6 4 10 9 10 6 0 13 -4 16 -10z m-2995 -17 c0 -24 -16 -48
-23 -36 -8 13 3 53 14 53 5 0 9 -8 9 -17z m-890 -18 c0 -17 -6 -21 -48 -30
l-34 -7 18 27 c10 15 20 23 22 16 6 -17 22 -13 22 5 0 8 5 12 10 9 6 -3 10
-12 10 -20z m1898 -32 c18 -15 19 -14 -30 -17 -21 -2 -38 1 -38 6 0 4 6 8 14
8 7 0 17 15 21 33 8 30 8 31 12 7 3 -14 12 -31 21 -37z m822 47 c0 -5 -7 -10
-15 -10 -8 0 -15 5 -15 10 0 6 7 10 15 10 8 0 15 -4 15 -10z m1492 -16 c-7
-12 -11 -13 -17 -4 -4 7 -2 16 6 21 18 11 23 4 11 -17z m-2545 4 c0 -7 4 -26
8 -42 6 -22 5 -28 -6 -24 -14 5 -31 63 -21 73 9 9 19 5 19 -7z m677 -4 c3 -8
2 -13 -2 -10 -5 3 -16 -4 -26 -15 -12 -15 -15 -30 -11 -60 4 -23 2 -39 -4 -39
-6 0 -8 6 -5 14 3 8 1 17 -5 21 -18 11 -12 57 11 82 25 27 34 29 42 7z m-2444
-4 c0 -5 -6 -10 -12 -10 -9 0 -8 -3 2 -10 17 -11 8 -15 -52 -24 -50 -6 -48 9
5 33 48 23 57 25 57 11z m2510 -35 c0 -7 -7 -12 -15 -12 -10 0 -15 10 -15 31
1 29 1 30 15 12 8 -11 15 -25 15 -31z m33 20 c-8 -22 -22 -18 -16 5 3 11 9 17
14 15 4 -3 6 -12 2 -20z m-1673 5 c0 -5 -4 -10 -10 -10 -5 0 -10 5 -10 10 0 6
5 10 10 10 6 0 10 -4 10 -10z m-480 -10 c8 -5 11 -12 7 -16 -4 -4 -15 0 -24 9
-18 18 -8 23 17 7z m635 -11 c6 -19 0 -38 -9 -28 -10 12 -16 49 -7 49 5 0 13
-9 16 -21z m450 11 c3 -5 1 -10 -4 -10 -6 0 -11 5 -11 10 0 6 2 10 4 10 3 0 8
-4 11 -10z m-1771 -15 c25 -19 9 -19 -24 0 -14 8 -19 14 -10 14 8 0 24 -6 34
-14z m1136 -17 c32 5 39 -8 15 -28 -8 -7 -15 -28 -15 -47 0 -23 -4 -33 -12
-30 -8 3 -12 19 -10 46 1 24 -1 40 -7 37 -11 -7 -23 19 -13 29 4 3 8 2 10 -3
1 -4 16 -6 32 -4z m134 -9 c-6 -11 -24 -2 -24 11 0 5 7 7 15 4 8 -4 12 -10 9
-15z m94 -70 c1 -67 -2 -80 -14 -75 -8 3 -14 -1 -14 -9 0 -8 4 -15 9 -15 15 0
22 -47 11 -76 -13 -34 -22 -26 -26 26 -4 44 -21 69 -43 62 -8 -3 -12 1 -8 9 2
8 10 13 16 12 12 -3 12 -4 16 51 1 22 7 42 13 44 7 2 12 12 12 21 0 19 8 31
21 31 4 0 7 -36 7 -81z m64 34 c1 -21 2 -52 3 -70 0 -20 13 -47 33 -72 38 -47
39 -51 12 -51 -23 0 -59 66 -60 107 0 12 -8 26 -17 32 -15 8 -16 13 -5 30 6
12 12 30 12 41 0 37 20 21 22 -17z m-1842 -22 c-6 -23 -15 -39 -20 -36 -8 5 1
53 15 75 14 22 16 1 5 -39z m3060 24 c0 -14 -5 -24 -12 -22 -6 1 -14 -7 -16
-18 -4 -17 -3 -18 14 -5 11 8 8 2 -5 -13 -23 -25 -26 -26 -42 -11 -17 15 -17
18 4 48 37 53 57 60 57 21z m-1473 -18 c-13 -29 -27 -36 -27 -13 0 15 29 50
36 43 2 -2 -2 -15 -9 -30z m119 12 c-9 -14 -13 -33 -9 -50 3 -17 1 -29 -5 -29
-5 0 -12 18 -14 40 -2 28 0 40 9 40 7 0 13 5 13 10 0 6 5 10 11 10 6 0 4 -9
-5 -21z m215 -6 c6 -15 15 -31 21 -35 9 -5 8 -11 -1 -22 -7 -9 -11 -25 -8 -36
7 -28 -8 -25 -32 6 -26 33 -30 114 -6 114 9 0 20 -12 26 -27z m1456 -10 c-3
-10 -5 -4 -5 12 0 17 2 24 5 18 2 -7 2 -21 0 -30z m-887 11 c0 -8 -4 -13 -9
-9 -5 3 -12 -3 -14 -12 -4 -14 -5 -13 -6 4 -1 18 6 26 27 32 1 1 2 -6 2 -15z
m-2079 -11 c13 -16 12 -17 -3 -4 -10 7 -18 15 -18 17 0 8 8 3 21 -13z m1865
-35 c4 -15 8 -17 14 -8 6 10 9 9 16 -1 4 -7 3 -14 -4 -17 -7 -2 -10 -8 -6 -13
3 -5 1 -9 -5 -9 -5 0 -12 4 -16 9 -3 5 -19 12 -35 16 -35 8 -35 9 -14 34 20
22 41 18 50 -11z m2060 25 c-10 -10 -46 -11 -40 -1 3 4 15 8 26 8 12 0 18 -3
14 -7z m-3088 -32 c3 -19 1 -21 -10 -12 -7 6 -22 18 -33 27 -19 14 -19 14 10
12 23 -2 31 -9 33 -27z m1275 9 c3 -11 1 -20 -4 -20 -4 0 -13 9 -19 20 -8 16
-8 20 3 20 8 0 17 -9 20 -20z m165 -2 c20 -20 14 -25 -33 -25 -49 0 -59 12
-22 27 31 12 41 12 55 -2z m567 -46 c-14 -27 -20 -30 -60 -30 -29 1 -46 6 -50
16 -8 21 3 28 24 15 20 -12 41 0 41 22 0 7 10 17 23 22 31 14 41 -6 22 -45z
m49 42 c21 -8 20 -27 -4 -55 l-19 -24 -1 43 c0 45 0 45 24 36z m-3275 -86 c1
-56 -15 -66 -17 -12 -1 20 -4 45 -7 55 -4 10 -3 24 1 31 11 18 22 -19 23 -74z
m1046 72 l20 -9 -20 0 c-11 0 -29 4 -40 9 l-20 9 20 0 c11 0 29 -4 40 -9z
m445 -16 c0 -16 -16 -19 -25 -4 -8 13 4 32 16 25 5 -4 9 -13 9 -21z m493 -26
c6 -45 -14 -52 -43 -16 -18 22 -18 23 8 40 14 9 27 16 28 15 1 -1 4 -19 7 -39z
m81 19 c50 -27 55 -42 19 -54 -45 -14 -71 -5 -78 27 -6 29 -1 51 13 49 4 0 25
-10 46 -22z m1424 -17 c0 -22 -4 -40 -9 -40 -14 0 -22 27 -13 42 5 7 9 16 10
21 6 31 12 21 12 -23z m-1928 -2 c0 -5 -4 -8 -10 -8 -5 0 -10 10 -10 23 0 18
2 19 10 7 5 -8 10 -18 10 -22z m949 -22 c1 -15 -1 -16 -14 -6 -9 7 -14 19 -11
27 3 7 -2 13 -12 14 -14 0 -14 2 3 8 21 9 33 -6 34 -43z m436 44 c3 -5 0 -10
-9 -10 -8 0 -16 -6 -19 -12 -2 -7 -8 -10 -12 -6 -8 8 12 38 26 38 4 0 11 -4
14 -10z m-2503 -30 l32 -27 -43 4 c-35 3 -42 0 -37 -12 3 -8 2 -15 -3 -15 -14
0 -32 28 -35 53 -2 20 2 24 25 24 16 0 43 -12 61 -27z m803 20 c3 -5 2 -10 -4
-10 -5 0 -13 5 -16 10 -3 6 -2 10 4 10 5 0 13 -4 16 -10z m-72 -24 c9 -7 17
-17 17 -22 0 -4 -5 -3 -11 3 -6 6 -18 9 -25 6 -8 -3 -14 1 -14 11 0 19 9 20
33 2z m987 4 c12 -8 11 -10 -7 -10 -13 0 -23 5 -23 10 0 13 11 13 30 0z m510
0 c0 -5 -4 -10 -10 -10 -5 0 -10 5 -10 10 0 6 5 10 10 10 6 0 10 -4 10 -10z
m220 -20 c0 -5 -2 -10 -4 -10 -3 0 -8 5 -11 10 -3 6 -1 10 4 10 6 0 11 -4 11
-10z m-1760 -9 c0 -6 -4 -12 -8 -15 -13 -8 -52 5 -46 15 7 12 54 12 54 0z
m-990 -11 c0 -5 -4 -10 -9 -10 -6 0 -13 5 -16 10 -3 6 1 10 9 10 9 0 16 -4 16
-10z m3320 -10 c0 -11 -7 -20 -15 -20 -18 0 -19 12 -3 28 16 16 18 15 18 -8z
m-2282 -1 c-2 -6 -8 -10 -13 -10 -5 0 -11 4 -13 10 -2 6 4 11 13 11 9 0 15 -5
13 -11z m274 -14 c3 -14 1 -25 -3 -25 -5 0 -9 11 -9 25 0 14 2 25 4 25 2 0 6
-11 8 -25z m248 -6 c0 -38 -22 -35 -26 4 -2 18 2 27 12 27 9 0 14 -11 14 -31z
m1820 17 c0 -8 -11 -28 -25 -43 -19 -21 -24 -23 -18 -8 7 22 33 65 39 65 2 0
4 -6 4 -14z m-1700 -11 c0 -8 -4 -15 -9 -15 -13 0 -22 16 -14 24 11 11 23 6
23 -9z m1247 9 c-3 -3 -12 -4 -19 -1 -8 3 -5 6 6 6 11 1 17 -2 13 -5z m-1815
-34 c15 -25 15 -26 -6 -25 -23 1 -66 25 -66 38 0 5 13 -1 29 -12 l28 -20 -5
27 c-5 30 -3 29 20 -8z m388 20 c0 -5 -2 -10 -4 -10 -3 0 -8 5 -11 10 -3 6 -1
10 4 10 6 0 11 -4 11 -10z m2134 -6 c5 -14 4 -15 -9 -4 -17 14 -19 20 -6 20 5
0 12 -7 15 -16z m-3004 -4 c0 -5 -4 -10 -10 -10 -5 0 -10 5 -10 10 0 6 5 10
10 10 6 0 10 -4 10 -10z m127 4 c-3 -3 -12 -4 -19 -1 -8 3 -5 6 6 6 11 1 17
-2 13 -5z m-627 -13 c0 -12 -50 -44 -57 -37 -6 6 37 45 50 46 4 0 7 -4 7 -9z
m1149 -21 c5 -16 8 -30 6 -30 -3 0 -11 14 -20 30 -9 17 -11 30 -6 30 5 0 14
-13 20 -30z m361 21 c0 -6 -4 -13 -10 -16 -5 -3 -10 -11 -10 -17 0 -7 6 -6 15
2 12 10 15 9 15 -4 0 -9 -7 -19 -16 -23 -8 -3 -13 -12 -10 -19 8 -20 3 -18
-29 12 -27 25 -27 26 -6 19 16 -5 21 -4 17 4 -8 12 10 51 24 51 6 0 10 -4 10
-9z m-1124 -16 c-25 -19 -41 -19 -24 0 7 8 20 14 28 14 11 0 10 -3 -4 -14z
m317 -17 c10 -21 16 -27 16 -15 1 21 17 22 25 1 3 -8 2 -12 -3 -9 -5 3 -12 1
-15 -4 -7 -10 -46 -3 -46 8 0 4 -14 5 -31 3 -28 -4 -48 8 -49 30 0 8 26 15 61
17 19 1 29 -7 42 -31z m187 28 c0 -3 -4 -8 -10 -11 -5 -3 -10 -1 -10 4 0 6 5
11 10 11 6 0 10 -2 10 -4z m870 0 c0 -3 -4 -8 -10 -11 -5 -3 -10 -1 -10 4 0 6
5 11 10 11 6 0 10 -2 10 -4z m-1611 -36 l16 -24 -28 18 c-15 10 -27 23 -27 28
0 16 22 4 39 -22z m306 20 c17 -7 15 -9 -12 -9 -18 -1 -33 4 -33 9 0 12 17 12
45 0z m731 -37 c-11 -11 -19 6 -11 24 8 17 8 17 12 0 3 -10 2 -21 -1 -24z
m224 27 c0 -5 -4 -10 -10 -10 -5 0 -10 5 -10 10 0 6 5 10 10 10 6 0 10 -4 10
-10z m-385 -10 c3 -5 1 -10 -4 -10 -6 0 -11 5 -11 10 0 6 2 10 4 10 3 0 8 -4
11 -10z m-1005 -9 c0 -5 -9 -11 -19 -14 -14 -3 -18 -1 -14 9 6 15 33 19 33 5z
m906 -6 c4 -8 10 -13 14 -10 5 3 12 -4 15 -16 4 -11 12 -18 19 -16 6 3 13 -4
13 -14 1 -10 0 -19 -2 -19 -2 0 -25 20 -51 45 -30 29 -40 45 -30 45 9 0 19 -7
22 -15z m-744 -52 c26 -27 19 -39 -13 -23 -24 13 -68 60 -69 73 0 12 57 -24
82 -50z m1380 22 c4 -18 1 -24 -11 -22 -19 3 -23 15 -15 40 7 23 20 14 26 -18z
m1720 3 c-6 -6 -15 -8 -19 -4 -4 4 -1 11 7 16 19 12 27 3 12 -12z m-103 -13
c-17 -17 -21 -18 -29 -5 -12 20 -4 28 25 26 l24 -1 -20 -20z m2516 14 c14 -14
-19 -30 -69 -32 -32 -2 -61 -8 -65 -15 -4 -7 -16 -2 -34 18 l-27 29 27 3 c38
4 162 2 168 -3z m-4925 -15 c0 -12 -4 -12 -20 -4 -11 6 -20 12 -20 13 0 2 9 3
20 4 12 1 20 -4 20 -13z m55 -10 c20 -32 16 -38 -19 -25 -28 11 -29 12 -20 35
9 23 19 20 39 -10z m2792 4 c-3 -8 -6 -5 -6 6 -1 11 2 17 5 13 3 -3 4 -12 1
-19z m-2237 -18 c0 -5 -4 -10 -10 -10 -5 0 -10 5 -10 10 0 6 5 10 10 10 6 0
10 -4 10 -10z m4255 -31 c-6 -18 -4 -20 13 -15 11 4 23 3 26 -3 6 -10 -112
-31 -128 -22 -14 7 24 18 55 16 16 -1 26 2 24 6 -5 8 4 39 12 39 2 0 1 -9 -2
-21z m-5795 1 c0 -5 -2 -10 -4 -10 -3 0 -8 5 -11 10 -3 6 -1 10 4 10 6 0 11
-4 11 -10z m394 -5 c3 -9 0 -15 -9 -15 -8 0 -15 7 -15 15 0 8 4 15 9 15 5 0
11 -7 15 -15z m651 -5 c3 -11 9 -19 13 -18 4 1 17 -1 30 -6 24 -8 30 -26 8
-26 -22 0 -29 -33 -10 -47 10 -7 15 -16 11 -19 -4 -4 -13 -1 -22 6 -16 13 -62
41 -102 62 -13 6 -23 17 -23 25 0 11 4 11 21 2 15 -8 19 -8 15 0 -4 6 0 11 9
11 8 0 18 7 21 15 8 21 21 19 29 -5z m209 -2 c-4 -7 -2 -8 5 -4 21 13 41 -13
34 -46 -4 -22 -2 -29 8 -27 18 4 59 -18 59 -31 0 -6 -7 -10 -15 -10 -8 0 -15
4 -15 9 0 5 -12 11 -27 13 -22 2 -33 13 -51 51 -21 45 -22 74 -1 61 5 -3 6
-10 3 -16z m2096 2 c0 -5 -2 -10 -4 -10 -3 0 -8 5 -11 10 -3 6 -1 10 4 10 6 0
11 -4 11 -10z m859 -36 c8 -7 -12 -24 -29 -24 -10 0 -21 -4 -24 -8 -3 -5 -30
-9 -62 -10 -51 -1 -56 0 -51 18 3 11 0 21 -6 22 -7 1 13 4 43 8 49 6 119 3
129 -6z m-2009 -4 c0 -5 -4 -10 -9 -10 -6 0 -13 5 -16 10 -3 6 1 10 9 10 9 0
16 -4 16 -10z m40 -21 c0 -5 -7 -9 -15 -9 -15 0 -20 12 -9 23 8 8 24 -1 24
-14z m400 1 c0 -5 -4 -10 -10 -10 -5 0 -10 5 -10 10 0 6 5 10 10 10 6 0 10 -4
10 -10z m-655 -10 c-3 -5 -11 -10 -16 -10 -6 0 -7 5 -4 10 3 6 11 10 16 10 6
0 7 -4 4 -10z m75 -8 c0 -4 -13 -16 -30 -25 -35 -21 -41 -6 -8 17 25 18 38 20
38 8z m137 2 c-3 -3 -12 -4 -19 -1 -8 3 -5 6 6 6 11 1 17 -2 13 -5z m-939 -27
c4 -20 -7 -21 -30 -3 -24 18 -22 27 5 22 12 -1 23 -10 25 -19z m444 -5 c-4
-19 -2 -23 8 -17 8 5 11 4 6 -3 -4 -6 -13 -9 -22 -5 -8 3 -22 -3 -30 -13 -14
-18 -15 -17 -9 11 8 35 20 52 38 52 9 0 12 -9 9 -25z m1792 4 c-3 -9 -10 -16
-15 -16 -14 0 -11 28 4 33 16 6 19 3 11 -17z m808 17 c-8 -3 -1 -18 22 -45 21
-24 32 -46 29 -56 -4 -10 -2 -13 5 -8 7 4 12 1 12 -8 0 -8 -5 -18 -10 -21 -7
-4 -7 -11 -2 -18 5 -7 12 -24 16 -40 6 -25 5 -26 -12 -16 -26 16 -68 -27 -77
-80 -6 -37 -9 -40 -27 -30 -11 6 -17 17 -14 24 6 18 -59 51 -144 74 -70 18
-81 34 -50 74 10 12 43 36 74 52 31 16 78 46 104 67 26 20 56 36 67 36 11 0
14 -2 7 -5z m225 -8 c0 -8 -4 -15 -9 -15 -10 0 -11 14 -1 23 9 10 10 9 10 -8z
m-2657 -4 c0 -5 -16 -18 -35 -30 -28 -16 -35 -17 -35 -6 0 8 7 15 15 15 9 0
18 7 21 15 7 16 34 21 34 6z m-1443 -20 c1 -14 -3 -18 -13 -14 -17 6 -18 20
-1 26 6 3 12 6 12 6 1 1 1 -8 2 -18z m1543 9 c0 -5 -5 -10 -11 -10 -5 0 -7 5
-4 10 3 6 8 10 11 10 2 0 4 -4 4 -10z m140 1 c0 -12 -20 -25 -27 -18 -7 7 6
27 18 27 5 0 9 -4 9 -9z m1340 -11 c0 -5 -5 -12 -11 -16 -12 -7 -31 15 -23 28
6 9 34 -1 34 -12z m380 6 c0 -8 -9 -24 -21 -37 -11 -13 -18 -19 -15 -13 3 6
10 23 15 38 11 28 21 34 21 12z m-460 -6 c0 -5 -2 -10 -4 -10 -3 0 -8 5 -11
10 -3 6 -1 10 4 10 6 0 11 -4 11 -10z m-2230 -15 c7 -8 8 -15 2 -15 -5 0 -15
7 -22 15 -7 8 -8 15 -2 15 5 0 15 -7 22 -15z m88 2 c6 -7 7 -18 3 -26 -7 -11
-11 -9 -20 7 -6 11 -11 23 -11 26 0 11 17 6 28 -7z m367 3 c5 -8 11 -7 21 1
11 9 14 8 14 -8 0 -10 -6 -27 -13 -37 -11 -15 -17 -17 -35 -7 -12 6 -22 20
-22 30 0 29 22 42 35 21z m645 6 c0 -3 -4 -8 -10 -11 -5 -3 -10 -1 -10 4 0 6
5 11 10 11 6 0 10 -2 10 -4z m640 -6 c0 -5 -5 -10 -11 -10 -5 0 -7 5 -4 10 3
6 8 10 11 10 2 0 4 -4 4 -10z m-817 -6 c11 -4 13 -13 8 -32 -11 -38 -26 -37
-26 3 0 19 1 35 2 35 1 0 8 -3 16 -6z m-1638 -14 c3 -5 -1 -10 -9 -10 -9 0
-16 5 -16 10 0 6 4 10 9 10 6 0 13 -4 16 -10z m1846 -26 c10 -12 8 -13 -6 -7
-14 5 -17 3 -12 -10 3 -9 2 -19 -3 -22 -9 -6 -14 8 -11 29 1 4 -3 14 -9 21 -9
11 -7 12 9 8 11 -3 26 -12 32 -19z m1779 16 c0 -5 -7 -10 -16 -10 -8 0 -12 5
-9 10 3 6 10 10 16 10 5 0 9 -4 9 -10z m-2025 -10 c-3 -5 -10 -10 -16 -10 -5
0 -9 5 -9 10 0 6 7 10 16 10 8 0 12 -4 9 -10z m-280 -10 c-3 -5 -16 -15 -28
-21 -21 -10 -21 -9 2 10 25 23 36 27 26 11z m65 -10 c0 -5 -9 -8 -20 -7 -22 1
-27 13 -7 20 14 5 27 -1 27 -13z m985 10 c-3 -5 -11 -10 -16 -10 -6 0 -7 5 -4
10 3 6 11 10 16 10 6 0 7 -4 4 -10z m1195 0 c0 -5 -4 -10 -10 -10 -5 0 -10 5
-10 10 0 6 5 10 10 10 6 0 10 -4 10 -10z m-2775 -41 c-6 -19 -4 -21 13 -17 12
4 23 0 26 -8 8 -22 -11 -26 -39 -8 -25 16 -32 34 -18 47 14 14 24 6 18 -14z
m88 7 c3 -8 -2 -16 -14 -19 -14 -4 -19 0 -19 14 0 22 25 26 33 5z m562 4 c-8
-12 32 -9 53 3 20 13 14 -21 -8 -43 -11 -11 -20 -17 -20 -12 0 4 -5 0 -10 -8
-9 -15 -13 -16 -45 -19 -18 -1 -19 -17 -2 -35 10 -12 15 -12 30 2 20 18 67 25
67 11 0 -6 -11 -21 -25 -34 -13 -14 -20 -25 -16 -25 5 0 23 16 42 35 35 36 59
45 59 23 0 -7 6 -4 12 7 6 11 20 27 31 35 23 19 92 26 102 10 3 -5 1 -10 -5
-10 -8 0 -10 -9 -6 -25 6 -25 -7 -35 -19 -15 -4 6 -11 8 -16 4 -5 -3 -7 -10
-4 -15 7 -11 -19 -51 -28 -43 -3 3 -5 -8 -5 -26 1 -32 -24 -62 -30 -36 -3 15
-42 30 -42 16 0 -12 89 -95 102 -95 6 0 13 6 16 13 2 6 -3 12 -11 12 -10 0
-13 7 -10 20 3 11 12 20 19 20 13 0 18 -15 17 -47 -1 -7 8 -13 18 -13 11 0 19
-6 19 -12 0 -7 3 -23 6 -35 5 -17 2 -23 -11 -23 -9 0 -15 6 -13 12 6 16 -16
38 -36 38 -9 0 -16 -6 -16 -14 0 -7 -7 -19 -15 -26 -12 -10 -12 -15 3 -38 9
-15 21 -30 26 -33 12 -9 -2 -61 -14 -54 -6 3 -10 13 -10 21 0 8 -4 14 -10 14
-5 0 -10 9 -10 20 0 11 -5 20 -11 20 -6 0 -8 9 -4 21 5 15 4 19 -4 15 -6 -4
-11 -3 -11 3 0 5 6 11 13 14 9 3 9 7 1 17 -9 9 -14 5 -19 -19 -6 -26 -9 -30
-21 -20 -12 9 -13 9 -9 -3 5 -11 -1 -15 -20 -15 -21 0 -24 3 -19 20 5 16 3 19
-10 14 -12 -5 -20 1 -28 18 -8 18 -17 24 -30 19 -21 -6 -23 7 -7 39 9 18 9 20
-2 10 -17 -17 -29 -16 -29 1 0 18 -38 60 -63 69 -10 4 -16 3 -12 -2 3 -5 1
-13 -5 -16 -8 -5 -7 -11 1 -21 9 -11 15 -12 26 -3 11 10 13 7 12 -17 -1 -16 2
-38 6 -49 6 -16 5 -18 -5 -8 -7 6 -19 9 -28 5 -11 -4 -14 -1 -9 11 4 11 0 17
-16 19 -16 2 -23 13 -29 42 -8 35 -5 44 22 77 16 21 30 47 30 59 0 11 19 40
43 65 39 40 67 59 52 35z m-1635 -4 c0 -3 -4 -8 -10 -11 -5 -3 -10 -1 -10 4 0
6 5 11 10 11 6 0 10 -2 10 -4z m705 -6 c3 -5 -1 -10 -9 -10 -9 0 -16 5 -16 10
0 6 4 10 9 10 6 0 13 -4 16 -10z m835 0 c0 -5 -4 -10 -8 -10 -5 0 -14 -12 -20
-26 -14 -30 -32 -23 -32 12 0 14 4 23 9 19 5 -3 12 -1 16 5 8 13 35 13 35 0z
m-412 -19 c3 -8 -1 -12 -9 -9 -7 2 -15 10 -17 17 -3 8 1 12 9 9 7 -2 15 -10
17 -17z m1351 16 c-2 -1 -13 -9 -24 -17 -19 -14 -19 -14 -6 3 7 9 18 17 24 17
6 0 8 -1 6 -3z m1188 -21 c-9 -7 -17 -18 -17 -24 0 -5 -7 -13 -16 -16 -12 -5
-15 -2 -10 10 3 8 6 20 6 25 0 6 4 8 9 5 5 -3 14 1 21 9 7 9 16 13 19 9 3 -3
-2 -11 -12 -18z m-2447 -28 c0 -9 -5 -18 -10 -20 -6 -2 -12 -14 -15 -28 -3
-14 -9 -26 -15 -28 -5 -2 -10 -10 -10 -18 0 -8 -4 -14 -10 -14 -5 0 -10 7 -10
15 0 8 -6 15 -14 15 -7 0 -16 10 -19 22 -5 19 -8 20 -23 7 -16 -12 -17 -12
-11 4 4 10 7 28 7 39 0 27 25 17 26 -11 1 -20 30 -61 43 -61 4 0 6 18 6 39 0
44 32 91 47 69 4 -7 8 -20 8 -30z m580 38 c0 -2 -7 -9 -15 -16 -12 -10 -15
-10 -15 4 0 9 7 16 15 16 8 0 15 -2 15 -4z m-56 -15 c3 -4 -1 -17 -9 -27 -11
-15 -16 -16 -26 -7 -10 10 -9 15 1 28 14 17 26 19 34 6z m346 -1 c0 -5 -2 -10
-4 -10 -3 0 -8 5 -11 10 -3 6 -1 10 4 10 6 0 11 -4 11 -10z m937 -12 c-3 -8
-6 -5 -6 6 -1 11 2 17 5 13 3 -3 4 -12 1 -19z m-1586 -11 c-10 -9 -11 -8 -5 6
3 10 9 15 12 12 3 -3 0 -11 -7 -18z m1229 15 c0 -16 -25 -32 -49 -31 -16 0
-20 3 -11 6 8 4 21 12 28 20 15 14 32 17 32 5z m145 -2 c3 -5 3 -15 -1 -21 -6
-11 -23 6 -24 24 0 10 18 9 25 -3z m-3905 -41 c0 -5 -9 -4 -19 3 -11 7 -17 16
-14 20 5 10 33 -10 33 -23z m1695 11 c3 -5 -1 -10 -10 -10 -9 0 -13 5 -10 10
3 6 8 10 10 10 2 0 7 -4 10 -10z m455 -21 c0 -5 -7 -9 -16 -9 -8 0 -22 -7 -31
-15 -27 -28 -32 -5 -5 23 18 19 31 25 40 19 6 -5 12 -13 12 -18z m358 8 c5
-24 -15 -21 -21 4 -3 13 -1 19 6 16 7 -2 13 -11 15 -20z m-42 -5 c-1 -22 -20
-42 -40 -42 -8 0 -18 -4 -21 -10 -12 -19 -26 -10 -20 11 5 15 4 19 -4 15 -6
-4 -11 -3 -11 3 0 16 35 36 68 38 22 2 29 -2 28 -15z m83 -13 c-19 -12 -24 -2
-8 17 9 11 14 13 17 4 3 -7 -2 -16 -9 -21z m1091 11 c-18 -13 -28 -16 -37 -8
-9 7 -17 7 -28 -2 -8 -7 -15 -8 -15 -3 0 19 22 30 63 31 l42 2 -25 -20z m2680
-2 c5 -13 9 -17 9 -10 1 19 25 14 39 -8 11 -19 10 -20 -33 -20 -25 0 -45 5
-45 10 0 6 5 10 12 10 9 0 9 3 0 12 -15 15 -16 28 -2 28 6 0 15 -10 20 -22z
m315 12 c3 -5 -3 -10 -14 -10 -11 0 -23 5 -26 10 -3 6 3 10 14 10 11 0 23 -4
26 -10z m-4025 -18 c0 -22 -19 -42 -40 -42 -8 0 -21 -12 -28 -27 -13 -31 -77
-77 -92 -68 -18 11 -11 36 22 81 33 46 43 53 51 32 2 -9 15 -4 38 14 40 32 49
34 49 10z m1763 -25 c-4 -6 -10 -2 -14 9 -12 31 -9 40 6 20 8 -10 11 -24 8
-29z m-1313 13 c11 -11 26 -17 35 -14 12 5 15 -2 15 -31 l0 -38 22 19 c12 10
18 13 13 5 -6 -11 -4 -13 8 -8 9 3 18 -1 21 -10 4 -11 2 -14 -9 -9 -8 3 -15 2
-15 -2 0 -14 15 -27 32 -28 14 -1 16 4 11 27 -3 17 -1 29 5 29 11 0 27 -88 18
-98 -3 -3 -14 2 -24 11 -23 21 -28 21 -36 1 -3 -8 -2 -12 4 -9 13 8 30 -28 30
-66 l0 -32 20 22 19 23 26 -27 c29 -33 29 -32 10 -32 -8 0 -12 4 -10 8 3 4 -2
9 -10 13 -14 5 -37 -23 -34 -41 4 -21 -2 -32 -15 -27 -8 3 -16 17 -19 32 -9
50 -60 182 -70 182 -14 0 -54 45 -62 69 -3 11 -15 23 -26 26 -10 4 -17 11 -14
16 10 15 34 10 55 -11z m3364 -12 c-3 -5 -12 -8 -20 -8 -8 0 -12 5 -9 10 3 6
-1 10 -10 10 -9 0 -14 4 -11 9 4 5 16 4 30 -2 13 -7 22 -15 20 -19z m-4741 2
c-5 -20 -43 -29 -43 -10 0 6 -12 10 -26 10 -14 0 -23 4 -19 10 3 6 26 10 50
10 38 0 43 -2 38 -20z m477 -12 c0 -13 -23 -5 -28 10 -2 7 2 10 12 6 9 -3 16
-11 16 -16z m1895 12 c3 -5 1 -10 -4 -10 -6 0 -11 5 -11 10 0 6 2 10 4 10 3 0
8 -4 11 -10z m-2940 -10 c-3 -5 -12 -10 -20 -10 -8 0 -17 5 -20 10 -4 6 5 10
20 10 15 0 24 -4 20 -10z m632 2 c8 -5 2 -12 -18 -21 -34 -15 -48 -9 -29 14
14 16 29 19 47 7z m1797 -5 c-5 -15 42 -41 57 -32 5 3 6 -1 3 -9 -7 -19 -14
-20 -38 -1 -22 17 -56 20 -56 6 0 -9 -30 -24 -36 -19 -1 2 4 18 11 36 11 24
20 32 39 32 17 0 24 -4 20 -13z m3156 0 c0 -4 -8 -11 -17 -14 -10 -4 -21 -11
-24 -16 -4 -5 -8 2 -11 15 -4 20 0 23 24 23 15 0 28 -4 28 -8z m-4580 -5 c0
-13 -39 -46 -46 -39 -9 9 16 47 31 47 8 0 15 -4 15 -8z m1331 -19 c-12 -20
-14 -14 -5 12 4 9 9 14 11 11 3 -2 0 -13 -6 -23z m-1251 13 c0 -2 -7 -9 -15
-16 -12 -10 -15 -10 -15 4 0 9 7 16 15 16 8 0 15 -2 15 -4z m230 -16 c0 -5 -4
-10 -10 -10 -5 0 -10 5 -10 10 0 6 5 10 10 10 6 0 10 -4 10 -10z m1537 -12
c-3 -8 -6 -5 -6 6 -1 11 2 17 5 13 3 -3 4 -12 1 -19z m-695 -16 c-6 -2 -12
-12 -12 -22 0 -10 -5 -22 -10 -25 -16 -10 -24 23 -10 40 9 11 9 15 1 15 -7 0
-9 5 -6 10 4 7 14 6 28 -2 14 -7 17 -13 9 -16z m648 1 c0 -20 -3 -24 -11 -16
-7 7 -9 19 -6 27 10 24 17 19 17 -11z m-2802 -27 c3 -20 0 -27 -10 -24 -7 3
-14 17 -16 32 -3 20 0 27 10 24 7 -3 14 -17 16 -32z m762 8 c0 -8 -7 -14 -15
-14 -15 0 -21 21 -9 33 10 9 24 -2 24 -19z m335 16 c3 -6 -1 -7 -9 -4 -18 7
-21 14 -7 14 6 0 13 -4 16 -10z m2221 -40 c-1 -51 -10 -65 -19 -30 -4 15 11
80 19 80 0 0 1 -22 0 -50z m-1108 -7 c-15 -19 17 -17 50 3 22 13 24 13 8 1
-31 -26 -10 -37 40 -20 48 16 64 12 45 -11 -10 -12 -9 -13 9 -9 16 4 20 11 16
26 -10 41 33 79 48 41 5 -13 9 -14 21 -4 21 17 29 6 15 -19 -12 -23 -25 -27
-35 -11 -4 6 -11 7 -17 4 -8 -5 -7 -11 3 -18 18 -14 20 -96 2 -96 -15 0 -18
-17 -3 -22 12 -4 -16 -48 -31 -48 -14 0 -11 27 5 33 9 4 12 14 9 26 -4 16 -8
17 -18 8 -7 -7 -11 -15 -8 -19 2 -4 -3 -5 -11 -2 -9 3 -16 1 -16 -4 0 -6 -8
-12 -17 -14 -21 -4 -58 26 -49 40 3 5 -11 24 -31 43 -26 25 -33 28 -24 12 9
-19 9 -22 -3 -17 -8 3 -17 0 -22 -7 -5 -8 -3 -10 7 -5 8 4 5 0 -5 -8 -11 -9
-23 -16 -28 -16 -11 0 -10 38 2 61 8 15 7 19 -5 19 -9 0 -15 9 -15 21 0 16 4
19 20 14 15 -5 20 -2 20 13 0 27 13 36 21 15 4 -10 2 -24 -3 -30z m2977 26
c-3 -4 4 -6 15 -4 11 2 20 1 20 -3 0 -4 21 -14 48 -21 26 -8 53 -18 60 -24 6
-5 12 -7 12 -3 0 3 9 -3 20 -14 11 -11 20 -22 20 -24 0 -9 -77 17 -102 35 -14
11 -40 19 -58 19 -25 0 -61 11 -78 25 -1 1 0 9 3 17 4 10 14 14 26 11 10 -3
16 -9 14 -14z m-2561 5 c24 -9 19 -19 -9 -19 -25 0 -31 6 -18 18 8 8 8 8 27 1z
m1358 -49 c0 -5 4 -15 9 -22 7 -7 6 -14 -1 -18 -5 -3 -10 -2 -10 4 0 13 -27 3
-61 -22 -35 -25 -75 -20 -72 11 2 19 -2 22 -32 22 -18 0 -37 5 -40 10 -3 6
-15 10 -25 10 -10 0 -22 5 -26 12 -5 8 0 9 17 5 52 -14 129 -20 129 -9 0 6
-15 14 -32 17 -57 13 -55 20 7 25 47 4 68 1 99 -15 21 -11 39 -24 38 -30z
m-2890 -6 c-1 -50 -30 -60 -53 -17 -9 18 -8 19 10 13 16 -5 21 -2 21 13 0 20
10 35 18 27 3 -3 5 -19 4 -36z m338 21 c0 -19 -11 -26 -23 -14 -8 8 3 34 14
34 5 0 9 -9 9 -20z m139 -45 c0 -5 -4 -3 -9 5 -5 8 -9 22 -9 30 0 16 17 -16
18 -35z m-1209 16 c-5 -11 -19 -23 -30 -26 -11 -3 -20 -13 -20 -20 0 -17 -30
-34 -47 -28 -23 8 -15 35 7 28 14 -5 20 -2 20 9 0 9 7 16 16 16 9 0 12 5 8 12
-4 6 -3 8 3 5 6 -4 19 0 29 8 25 19 27 19 14 -4z m658 -21 c7 -12 8 -20 2 -20
-5 0 -10 5 -10 10 0 6 -7 10 -15 10 -8 0 -15 7 -15 15 0 19 22 10 38 -15z
m1722 4 c0 -14 -4 -23 -9 -20 -5 3 -7 15 -4 26 7 28 13 25 13 -6z m-2730 -5
c0 -5 -4 -9 -10 -9 -5 0 -10 7 -10 16 0 8 5 12 10 9 6 -3 10 -10 10 -16z
m2694 -4 c-4 -8 -11 -15 -16 -15 -6 0 -5 6 2 15 7 8 14 15 16 15 2 0 1 -7 -2
-15z m-2074 -40 c-44 -43 -88 -49 -62 -8 6 10 69 39 92 42 2 1 -11 -15 -30
-34z m1220 -11 c0 -8 -5 -12 -10 -9 -6 4 -8 11 -5 16 9 14 15 11 15 -7z m-770
-4 c0 -5 -4 -10 -10 -10 -5 0 -10 5 -10 10 0 6 5 10 10 10 6 0 10 -4 10 -10z
m3455 0 c3 -6 -1 -7 -9 -4 -18 7 -21 14 -7 14 6 0 13 -4 16 -10z m-2575 -10
c0 -5 -4 -10 -10 -10 -5 0 -10 5 -10 10 0 6 5 10 10 10 6 0 10 -4 10 -10z
m250 0 c0 -5 -7 -10 -16 -10 -8 0 -12 5 -9 10 3 6 10 10 16 10 5 0 9 -4 9 -10z
m30 -9 c0 -6 -4 -13 -10 -16 -5 -3 -10 1 -10 9 0 9 5 16 10 16 6 0 10 -4 10
-9z m-708 -26 c-2 -14 -6 -25 -8 -25 -2 0 -4 11 -4 25 0 14 4 25 9 25 4 0 6
-11 3 -25z m56 0 c10 17 11 13 12 -26 0 -26 2 -59 4 -75 2 -16 1 -22 -1 -14
-3 8 -8 17 -12 20 -13 10 -31 62 -30 88 0 23 2 24 8 7 8 -19 8 -19 19 0z m53
-66 c4 -35 10 -72 14 -81 4 -10 3 -18 -2 -18 -12 0 -31 60 -40 125 -5 38 -3
47 8 43 9 -3 16 -27 20 -69z m529 61 c0 -5 -4 -10 -10 -10 -5 0 -10 5 -10 10
0 6 5 10 10 10 6 0 10 -4 10 -10z m-412 -25 c-2 -16 -6 -21 -12 -15 -17 17
-27 11 -16 -9 7 -13 7 -22 0 -26 -12 -8 -13 -45 -1 -45 4 0 11 -30 15 -66 4
-44 14 -76 27 -92 l20 -26 -5 30 c-9 50 -24 118 -31 142 -6 17 -4 21 7 17 10
-4 18 2 22 17 7 22 8 22 17 -7 5 -16 7 -41 3 -55 -4 -20 -3 -23 7 -12 19 18
27 15 43 -15 8 -16 15 -22 16 -14 0 9 7 11 21 8 17 -4 19 -3 10 6 -6 6 -11 18
-11 26 0 19 12 5 27 -30 11 -25 10 -26 -10 -22 -17 4 -19 3 -7 -6 8 -5 20 -27
26 -48 10 -31 12 -34 13 -13 1 28 16 56 23 44 2 -5 6 -28 7 -51 3 -43 -5 -53
-26 -32 -14 14 -7 -53 13 -128 18 -65 18 -81 2 -65 -7 7 -18 12 -26 12 -11 0
-12 -3 -3 -14 10 -12 8 -13 -8 -9 -11 3 -25 11 -31 18 -8 10 -6 15 12 21 21 7
20 9 -12 14 -28 4 -35 10 -35 27 0 12 -16 41 -35 64 -21 27 -29 44 -22 47 7 2
12 8 12 14 0 6 -9 3 -20 -7 -18 -16 -20 -16 -25 -1 -3 9 -8 24 -12 34 -3 9 -7
19 -8 22 0 3 -13 30 -28 61 -15 31 -27 72 -27 92 0 44 27 105 49 110 9 3 17 5
18 6 2 0 2 -10 1 -24z m458 14 c3 -6 -1 -18 -10 -27 -15 -15 -16 -14 -16 11 0
27 13 36 26 16z m3352 -1 c-6 -16 -42 -28 -58 -18 -7 4 -9 13 -6 19 10 15 69
14 64 -1z m-3880 -27 c2 -12 -1 -28 -7 -35 -6 -8 -9 -21 -5 -30 3 -9 1 -16 -4
-16 -14 0 -18 25 -13 73 3 41 24 47 29 8z m632 19 c0 -5 -7 -10 -15 -10 -8 0
-15 5 -15 10 0 6 7 10 15 10 8 0 15 -4 15 -10z m-320 -4 c0 -2 -7 -6 -15 -10
-8 -3 -15 -1 -15 4 0 6 7 10 15 10 8 0 15 -2 15 -4z m73 -30 c11 -3 18 -8 15
-11 -11 -11 -48 15 -47 33 1 15 2 15 6 1 2 -10 14 -19 26 -23z m81 18 c4 -12
2 -15 -9 -10 -8 3 -15 1 -15 -4 0 -6 5 -10 10 -10 6 0 10 -4 10 -10 0 -5 -11
-10 -24 -10 -32 0 -39 31 -11 47 27 16 32 16 39 -3z m3173 10 c-3 -3 -12 -4
-19 -1 -8 3 -5 6 6 6 11 1 17 -2 13 -5z m-126 -24 c11 0 31 -8 45 -17 24 -15
28 -15 58 1 33 17 66 13 66 -9 0 -6 -9 -22 -20 -35 -11 -13 -20 -31 -20 -42 0
-23 -20 -24 -21 0 -1 26 -15 -13 -24 -67 -9 -53 -34 -85 -60 -75 -33 13 -10
-20 28 -40 34 -18 54 -43 43 -54 -3 -2 -19 -5 -36 -7 -44 -3 -50 -15 -7 -15
21 0 37 -4 37 -9 0 -5 -8 -7 -19 -4 -10 3 -22 0 -25 -6 -5 -7 2 -11 17 -11 14
0 29 -6 35 -13 9 -10 4 -18 -21 -33 -30 -18 -31 -19 -9 -22 12 -2 22 -7 22
-11 0 -5 3 -23 6 -40 6 -26 3 -31 -13 -31 -23 0 -43 18 -37 35 4 9 -10 10 -52
7 -46 -4 -60 -1 -70 12 -7 10 -18 16 -26 15 -14 -2 -32 4 -94 32 -22 11 -53
19 -67 19 -18 0 -30 7 -33 18 -3 9 -10 27 -16 39 -15 31 -2 46 26 28 21 -14
23 -13 36 9 9 18 25 27 58 33 57 10 66 30 18 39 -57 10 -46 34 15 34 28 0 66
7 85 16 33 16 33 16 16 39 -9 13 -20 18 -23 13 -4 -7 -14 -6 -27 1 -19 10 -20
13 -6 39 7 15 14 35 14 45 0 11 8 17 25 17 28 0 28 0 15 34 -8 21 -6 25 13 28
12 2 24 0 25 -4 2 -5 12 -8 23 -8z m-2801 0 c0 -5 -5 -10 -11 -10 -5 0 -7 5
-4 10 3 6 8 10 11 10 2 0 4 -4 4 -10z m-394 -42 c-3 -39 -5 -43 -29 -43 -20 1
-24 -2 -15 -13 6 -7 17 -11 23 -8 8 3 13 -5 13 -20 0 -28 -13 -31 -27 -6 -10
16 -10 16 -11 0 0 -9 5 -20 10 -23 18 -11 11 -23 -10 -18 -11 3 -17 9 -14 15
3 5 1 15 -5 22 -8 10 -8 22 -1 40 13 34 13 49 0 41 -5 -3 -10 -3 -10 2 0 4 11
13 25 20 23 10 25 10 19 -13 -4 -15 -2 -24 5 -24 6 0 11 16 11 35 0 19 4 35 9
35 5 0 8 -19 7 -42z m214 22 c0 -5 -4 -10 -9 -10 -6 0 -13 5 -16 10 -3 6 1 10
9 10 9 0 16 -4 16 -10z m50 -22 c0 9 7 11 19 7 11 -3 22 -1 26 5 8 13 75 13
75 -1 0 -6 -9 -8 -20 -4 -11 3 -20 3 -20 -2 0 -4 -11 -13 -25 -20 -14 -6 -25
-7 -25 -3 0 4 -9 6 -21 3 -12 -4 -25 0 -30 8 -15 23 -10 34 6 13 9 -12 14 -14
15 -6z m-1580 -6 c0 -9 -9 -23 -20 -30 -16 -10 -20 -10 -20 2 0 8 7 17 16 20
8 3 12 10 9 16 -3 5 -1 10 4 10 6 0 11 -8 11 -18z m1356 -7 c-2 -7 1 -18 7
-24 9 -9 8 -14 -3 -21 -8 -5 -18 -10 -22 -10 -10 0 -11 64 -2 73 10 10 26 -4
20 -18z m58 -13 c-11 -3 -14 -14 -11 -43 3 -29 1 -39 -8 -35 -7 2 -17 0 -22
-5 -7 -7 -12 -5 -16 4 -4 10 2 17 15 20 15 4 18 11 13 29 -12 38 -11 43 8 42
9 -1 17 3 17 10 0 6 5 4 10 -4 7 -11 5 -16 -6 -18z m-949 7 c11 -17 -1 -21
-15 -4 -8 9 -8 15 -2 15 6 0 14 -5 17 -11z m995 -9 c0 -5 -5 -10 -11 -10 -5 0
-7 5 -4 10 3 6 8 10 11 10 2 0 4 -4 4 -10z m609 -9 c0 -3 -4 -15 -8 -26 -7
-17 -9 -16 -13 11 -3 24 -1 31 9 27 7 -3 13 -8 12 -12z m-525 -22 c-8 -14 -24
-10 -24 6 0 9 6 12 15 9 8 -4 12 -10 9 -15z m166 10 c0 -5 -4 -7 -10 -4 -5 3
-10 2 -10 -4 0 -18 24 -17 42 1 10 10 25 18 35 18 15 0 15 -1 0 -18 -10 -10
-17 -25 -17 -34 0 -11 -8 -13 -30 -10 -30 4 -30 4 -30 -41 0 -24 -7 -58 -15
-73 -8 -16 -15 -36 -15 -44 1 -28 29 21 47 80 21 68 20 67 37 45 17 -24 15
-255 -3 -302 -14 -35 -31 -44 -31 -17 0 13 -6 15 -27 9 -16 -3 -35 -13 -44
-21 -11 -10 -33 -13 -72 -10 -32 2 -54 0 -51 -5 3 -5 1 -9 -4 -9 -6 0 -12 7
-16 15 -3 8 -15 15 -26 15 -13 0 -24 10 -30 26 -11 28 -67 79 -87 79 -23 0
-42 39 -43 87 0 48 19 112 27 91 3 -7 11 -13 18 -13 9 0 16 -19 20 -57 9 -81
14 -95 33 -91 14 3 17 17 17 88 0 84 18 148 40 143 5 -1 17 -33 27 -72 9 -38
21 -78 26 -88 6 -10 15 -31 22 -48 10 -26 13 -27 21 -12 6 10 7 26 4 37 -4 11
-2 20 3 20 6 0 10 21 9 48 -1 31 2 46 9 45 7 -1 15 13 18 32 13 67 36 36 36
-48 0 -37 3 -48 10 -37 5 8 10 33 10 55 0 22 4 56 10 74 7 27 7 32 -2 23 -21
-21 -29 -13 -12 13 16 25 54 35 54 14z m287 -36 c-3 -10 -5 -4 -5 12 0 17 2
24 5 18 2 -7 2 -21 0 -30z m-1200 -5 c-3 -7 -5 -2 -5 12 0 14 2 19 5 13 2 -7
2 -19 0 -25z m1141 26 c-3 -3 -2 -21 2 -40 4 -19 4 -34 -1 -34 -5 0 -9 11 -9
24 0 13 -3 31 -6 40 -4 10 -1 16 7 16 7 0 10 -2 7 -6z m-2378 -47 c0 -20 0
-20 -15 -1 -20 27 -20 51 0 34 8 -7 15 -22 15 -33z m2260 36 c-1 -13 -38 -53
-49 -53 -18 0 -12 21 12 41 23 19 37 24 37 12z m-275 -70 c0 -32 4 -71 8 -88
6 -22 6 -26 -2 -15 -7 10 -11 11 -11 3 0 -7 -5 -13 -11 -13 -5 0 -8 3 -6 8 2
4 1 36 -3 71 -9 68 -5 91 14 91 7 0 11 -21 11 -57z m322 -32 c-3 -36 -13 -81
-23 -100 -9 -18 -17 -52 -17 -75 0 -73 -14 -8 -22 100 -8 111 -3 141 23 147
39 8 45 -3 39 -72z m-1326 49 c12 0 19 -7 19 -19 0 -11 5 -23 10 -26 13 -8 13
-25 0 -25 -10 0 -61 74 -59 87 0 5 3 2 6 -4 2 -7 13 -13 24 -13z m269 -8 c0
-15 -2 -15 -10 -2 -13 20 -13 33 0 25 6 -3 10 -14 10 -23z m593 -34 c-7 -55
-22 -46 -20 12 1 39 3 48 13 38 6 -8 9 -29 7 -50z m684 43 c10 -16 8 -22 -8
-37 -10 -9 -19 -21 -19 -26 0 -12 -26 -38 -38 -38 -5 0 -12 -9 -15 -20 -5 -20
-33 -37 -44 -26 -3 3 0 12 7 21 10 12 10 18 0 30 -16 19 6 53 24 35 19 -19 34
-10 41 23 7 32 22 57 34 57 3 0 12 -9 18 -19z m-724 -31 c3 -11 1 -20 -4 -20
-5 0 -9 4 -9 9 0 5 -3 17 -7 27 -4 11 -3 15 4 11 6 -4 13 -16 16 -27z m2267
-16 c0 -8 4 -12 10 -9 6 3 7 -1 4 -9 -7 -17 11 -22 21 -6 8 13 45 13 45 0 0
-15 -35 -30 -60 -25 -26 5 -50 34 -43 52 7 18 23 16 23 -3z m-4030 -84 c0 -5
-2 -10 -4 -10 -3 0 -8 5 -11 10 -3 6 -1 10 4 10 6 0 11 -4 11 -10z m4120 1 c0
-26 -15 -41 -40 -41 -36 0 -49 19 -25 37 21 15 65 18 65 4z m-2794 -88 l-15
-48 0 51 c-1 27 5 56 12 63 19 19 21 -9 3 -66z m-316 16 c0 -6 -4 -7 -10 -4
-5 3 -10 11 -10 16 0 6 5 7 10 4 6 -3 10 -11 10 -16z m1270 14 c0 -5 -11 -13
-25 -19 -23 -11 -24 -10 -14 7 9 18 39 27 39 12z m1670 -9 c0 -2 -11 -4 -25
-4 -14 0 -25 4 -25 9 0 4 11 6 25 3 14 -2 25 -6 25 -8z m-2895 -4 c3 -5 1 -10
-4 -10 -6 0 -11 5 -11 10 0 6 2 10 4 10 3 0 8 -4 11 -10z m347 -22 c-7 -7 -13
-32 -13 -57 -1 -26 -4 -58 -8 -74 -6 -26 -7 -27 -28 -12 -40 28 -29 98 20 132
36 25 47 29 29 11z m2653 2 c-3 -5 -11 -10 -16 -10 -6 0 -7 5 -4 10 3 6 11 10
16 10 6 0 7 -4 4 -10z m-2995 -15 c0 -8 -4 -15 -9 -15 -13 0 -22 16 -14 24 11
11 23 6 23 -9z m1144 -49 c-3 -14 -10 -26 -15 -26 -5 0 -9 -8 -9 -19 0 -10 -9
-21 -20 -24 -20 -5 -20 -4 2 36 39 73 56 86 42 33z m1901 4 c-3 -5 -15 -10
-26 -10 -11 0 -17 5 -14 10 3 6 15 10 26 10 11 0 17 -4 14 -10z m-2672 -67
l-6 -48 21 25 c26 30 31 7 6 -28 -8 -12 -23 -46 -33 -75 l-18 -52 -8 75 c-5
59 -3 84 9 113 22 53 37 47 29 -10z m2517 43 c0 -3 -4 -8 -10 -11 -5 -3 -10
-1 -10 4 0 6 5 11 10 11 6 0 10 -2 10 -4z m-2885 -16 c3 -5 1 -10 -4 -10 -6 0
-11 5 -11 10 0 6 2 10 4 10 3 0 8 -4 11 -10z m-580 -17 c-4 -10 -7 -34 -6 -53
1 -19 -1 -31 -5 -27 -12 12 -14 59 -3 79 12 23 24 24 14 1z m655 1 c0 -8 -4
-12 -10 -9 -5 3 -10 10 -10 16 0 5 5 9 10 9 6 0 10 -7 10 -16z m2773 1 c-3 -9
-8 -14 -10 -11 -3 3 -2 9 2 15 9 16 15 13 8 -4z m-2877 -32 c-4 -4 -11 -1 -16
7 -16 25 -11 35 7 17 9 -9 13 -20 9 -24z m146 -19 c-2 -13 0 -24 6 -24 5 0 12
-9 15 -20 3 -12 0 -20 -7 -20 -15 0 -36 56 -36 95 0 27 1 27 13 11 8 -10 12
-29 9 -42z m2836 43 c17 -13 15 -27 -3 -27 -8 0 -15 -7 -15 -15 0 -8 -6 -15
-14 -15 -23 0 -28 16 -10 31 14 12 14 14 -1 25 -16 12 -15 13 6 12 13 -1 30
-6 37 -11z m90 -37 c-7 -10 -14 -18 -15 -16 -6 6 9 36 18 36 5 0 4 -9 -3 -20z
m-233 0 c-3 -5 -12 -7 -20 -3 -21 7 -19 13 6 13 11 0 18 -4 14 -10z m-1867
-19 c3 -8 -1 -12 -9 -9 -7 2 -15 10 -17 17 -3 8 1 12 9 9 7 -2 15 -10 17 -17z
m1817 -1 c3 -5 1 -10 -4 -10 -6 0 -11 5 -11 10 0 6 2 10 4 10 3 0 8 -4 11 -10z
m4 -75 c-3 -73 -19 -83 -19 -12 0 48 5 67 17 67 2 0 3 -25 2 -55z m140 30 c13
-14 29 -25 37 -25 8 0 14 -7 14 -15 0 -14 -7 -16 -77 -19 -13 -1 -19 9 -24 36
-5 34 0 44 21 47 3 0 16 -11 29 -24z m-2491 -54 c1 -24 -4 -46 -13 -55 -9 -8
-15 -19 -14 -23 4 -22 -3 -31 -25 -29 l-24 1 24 65 c20 51 36 77 50 80 0 0 1
-18 2 -39z m2395 20 c-3 -11 4 -27 18 -40 l23 -22 -24 4 c-21 3 -26 10 -28 40
-2 21 1 37 6 37 6 0 8 -8 5 -19z m-2503 -11 c0 -13 -5 -18 -15 -14 -12 5 -13
10 -4 20 15 19 19 18 19 -6z m-110 -36 c0 -4 -9 1 -20 11 -11 10 -20 23 -20
28 0 6 9 1 20 -11 11 -12 20 -24 20 -28z m3732 -4 c6 0 9 -3 6 -6 -9 -8 -48
14 -48 27 0 6 7 3 16 -5 8 -9 20 -16 26 -16z m-1002 0 c12 -8 9 -10 -12 -10
-16 0 -28 5 -28 10 0 13 20 13 40 0z m-62 -67 c-27 -29 -38 -29 -31 -2 4 14 1
20 -8 19 -28 -4 -38 0 -36 18 1 18 3 18 48 3 l48 -16 -21 -22z m-1468 -63 c0
-21 -18 0 -39 45 -31 66 -25 78 9 18 17 -29 30 -57 30 -63z m-1196 68 c-9 -14
-23 2 -17 18 4 12 8 13 14 3 4 -7 5 -17 3 -21z m266 -7 c0 -21 -7 -52 -15 -67
-8 -16 -15 -39 -15 -52 0 -33 -31 -25 -41 10 -5 20 1 43 22 88 15 33 33 60 39
60 5 0 10 -17 10 -39z m2297 -28 c4 -10 15 -29 25 -42 10 -13 18 -28 18 -32 0
-16 -18 -9 -24 9 -3 9 -15 32 -26 50 -11 17 -15 32 -9 32 5 0 13 -8 16 -17z
m-2587 -25 c0 -19 -2 -20 -10 -8 -13 19 -13 30 0 30 6 0 10 -10 10 -22z m2323
15 c-7 -2 -19 -2 -25 0 -7 3 -2 5 12 5 14 0 19 -2 13 -5z m-1174 -25 c5 -13
12 -34 16 -48 7 -22 6 -23 -9 -8 -17 17 -34 78 -22 78 4 0 10 -10 15 -22z
m-1089 -7 c0 -6 -4 -13 -10 -16 -5 -3 -10 1 -10 9 0 9 5 16 10 16 6 0 10 -4
10 -9z m2351 -82 c-30 -24 -41 -24 -41 0 0 14 8 21 28 23 38 5 41 -1 13 -23z
m-2364 -5 c3 -8 1 -20 -6 -27 -8 -8 -11 -8 -11 0 0 6 -3 18 -6 27 -3 9 -1 16
5 16 7 0 14 -7 18 -16z m2653 -8 c0 -15 -24 -28 -34 -19 -7 7 13 33 25 33 5 0
9 -6 9 -14z m-1586 -31 c4 -17 1 -31 -9 -41 -13 -14 -15 -11 -15 25 0 46 14
55 24 16z m-819 -30 c0 -25 -3 -45 -7 -45 -9 0 -10 52 -2 74 9 22 9 21 9 -29z
m2110 -5 c3 -5 1 -10 -4 -10 -6 0 -11 5 -11 10 0 6 2 10 4 10 3 0 8 -4 11 -10z
m75 0 c0 -5 7 -7 15 -4 8 4 15 1 15 -5 0 -6 -11 -11 -25 -11 -16 0 -25 6 -25
15 0 8 5 15 10 15 6 0 10 -4 10 -10z m134 -6 c9 -24 7 -29 -6 -16 -8 8 -15 9
-25 1 -16 -14 -17 3 -1 19 16 16 25 15 32 -4z m746 -34 c0 -5 -7 -10 -15 -10
-8 0 -15 5 -15 10 0 6 7 10 15 10 8 0 15 -4 15 -10z m-3202 -48 c6 -2 12 2 12
9 0 10 2 11 13 0 10 -10 9 -14 -5 -22 -22 -12 -23 -29 -4 -29 8 0 17 -8 20
-17 8 -28 9 -96 2 -114 -4 -10 -3 -20 3 -24 14 -8 14 -45 1 -45 -5 0 -10 11
-10 25 0 14 -9 30 -19 37 -16 10 -18 15 -8 27 9 11 9 15 0 18 -7 2 -10 10 -7
18 3 7 -2 24 -10 37 -9 14 -13 28 -9 33 5 4 3 5 -4 2 -7 -4 -15 5 -22 25 -9
26 -8 34 6 48 17 16 18 16 23 -3 3 -11 11 -22 18 -25z m986 32 c9 -22 -3 -32
-14 -14 -12 19 -12 30 -1 30 5 0 12 -7 15 -16z m1366 -4 c0 -5 -4 -10 -10 -10
-5 0 -10 5 -10 10 0 6 5 10 10 10 6 0 10 -4 10 -10z m-2142 -25 c-3 -13 0 -26
6 -29 7 -3 7 -7 -2 -14 -7 -5 -14 -19 -15 -30 -2 -30 -14 -27 -20 5 -3 15 2
42 11 60 19 39 26 42 20 8z m-75 -5 c-6 -24 -26 -21 -31 3 -2 11 3 17 16 17
15 0 19 -5 15 -20z m2147 -22 c0 -4 -4 -9 -10 -13 -14 -9 -50 17 -50 37 0 16
2 16 30 0 16 -9 30 -20 30 -24z m-2330 -21 c0 -5 -4 -5 -10 -2 -5 3 -10 14
-10 23 0 15 2 15 10 2 5 -8 10 -19 10 -23z m2440 23 c0 -5 -4 -10 -10 -10 -5
0 -10 5 -10 10 0 6 5 10 10 10 6 0 10 -4 10 -10z m1374 -16 c3 -8 2 -12 -4 -9
-6 3 -10 10 -10 16 0 14 7 11 14 -7z m-3636 -46 c1 -48 0 -51 -11 -28 -6 14
-15 28 -20 31 -7 5 20 49 29 49 0 0 1 -24 2 -52z m2297 42 c3 -5 -1 -10 -9
-10 -9 0 -16 5 -16 10 0 6 4 10 9 10 6 0 13 -4 16 -10z m-2179 -70 c-14 -24
-23 -47 -20 -52 3 -4 -2 -8 -10 -8 -27 0 -18 42 16 77 17 18 33 31 35 29 2 -2
-8 -23 -21 -46z m2025 32 c-7 -2 -18 1 -23 6 -8 8 -4 9 13 5 13 -4 18 -8 10
-11z m-2291 -31 c0 -6 -4 -13 -10 -16 -5 -3 -10 1 -10 9 0 9 5 16 10 16 6 0
10 -4 10 -9z m-3 -61 c0 -20 -3 -26 -9 -18 -10 17 -10 48 0 48 5 0 9 -14 9
-30z m193 0 c0 -5 -7 -10 -15 -10 -8 0 -15 5 -15 10 0 6 7 10 15 10 8 0 15 -4
15 -10z m100 -13 c0 -7 -4 -6 -10 3 -10 16 -10 17 -15 -50 -3 -39 -23 -70 -41
-63 -8 3 -13 12 -10 20 3 8 6 25 6 37 0 13 12 35 26 49 26 26 44 28 44 4z
m780 -9 c0 -4 -4 -8 -9 -8 -5 0 -7 -10 -4 -22 5 -22 5 -22 -10 -3 -8 10 -13
24 -10 30 5 13 33 16 33 3z m-3922 -24 c37 -4 52 -10 52 -21 0 -12 -11 -14
-67 -8 -43 4 -63 3 -55 -3 11 -7 8 -11 -9 -15 -13 -4 -26 -1 -30 5 -4 6 -12 7
-18 4 -6 -4 -11 0 -11 9 0 9 -15 23 -32 31 -32 14 -30 14 42 9 41 -3 99 -8
128 -11z m-204 -17 c-1 -9 4 -17 11 -17 16 0 73 -29 80 -41 9 -13 -6 -11 -35
6 -14 8 -35 14 -47 15 -15 0 -23 6 -23 18 0 10 -6 24 -12 31 -11 10 -9 12 7 9
11 -2 19 -11 19 -21z m3095 -5 c7 -17 9 -41 5 -58 l-8 -29 -8 35 c-5 19 -12
45 -15 58 -8 32 12 27 26 -6z m930 -36 c-1 -17 -2 -16 -9 6 -4 14 -11 32 -15
40 -3 7 1 4 9 -6 9 -11 16 -29 15 -40z m-1389 34 c0 -5 -9 -10 -20 -10 -11 0
-20 5 -20 10 0 6 9 10 20 10 11 0 20 -4 20 -10z m510 -22 c-23 -37 -27 -63 -6
-35 17 23 26 11 19 -26 -4 -18 -12 -27 -24 -27 -15 0 -19 7 -19 38 0 37 22 82
40 82 6 0 1 -15 -10 -32z m-2732 -11 c2 -10 -3 -17 -11 -17 -16 0 -107 -38
-107 -45 0 -8 95 8 98 17 2 4 16 8 31 8 15 0 42 11 61 25 19 14 43 25 54 25
20 -1 20 -1 -3 -20 -13 -11 -29 -20 -36 -20 -22 0 -25 -39 -4 -45 10 -4 23 -4
28 0 5 3 12 1 16 -4 8 -14 -91 -89 -181 -136 -42 -22 -78 -45 -81 -51 -5 -14
-94 -1 -140 21 -30 14 -37 15 -63 1 l-30 -14 0 31 c1 18 9 46 18 63 15 28 22
31 72 33 57 2 130 38 130 64 0 12 62 57 79 57 5 0 11 6 14 13 7 19 51 14 55
-6z m2382 2 c0 -5 -10 -9 -22 -9 -20 0 -21 -1 -3 -20 10 -11 28 -20 41 -20 13
0 26 -5 30 -12 5 -7 2 -9 -9 -5 -9 3 -30 2 -48 -3 -18 -5 -34 -8 -36 -6 -8 7
-12 52 -7 68 8 25 54 32 54 7z m567 -51 c-36 -117 -57 -137 -57 -53 0 35 6 52
31 80 17 19 34 35 38 35 4 0 -1 -28 -12 -62z m2569 41 c23 -19 16 -27 -30 -34
-52 -8 -106 12 -71 26 17 6 17 8 3 8 -10 1 -18 4 -18 9 0 11 101 4 116 -9z
m-1835 -47 c-5 -2 -7 -12 -4 -23 4 -15 2 -18 -12 -13 -11 5 -15 14 -11 28 3
11 6 28 6 36 1 11 4 10 16 -5 8 -11 11 -21 5 -23z m-1032 -23 c-20 -13 -29
-11 -29 5 0 16 33 27 39 13 2 -5 -3 -13 -10 -18z m3851 10 c0 -6 -4 -7 -10 -4
-5 3 -10 11 -10 16 0 6 5 7 10 4 6 -3 10 -11 10 -16z m-3733 -33 c-1 -32 -5
-42 -16 -38 -11 4 -12 -3 -7 -34 7 -45 8 -96 1 -103 -12 -11 -18 13 -22 85 -3
66 -2 76 11 71 13 -5 16 1 16 28 0 19 4 35 9 35 5 0 9 -20 8 -44z m762 4 c7
-23 7 -29 -1 -24 -8 5 -9 1 -5 -10 4 -9 3 -15 -2 -12 -8 5 -14 76 -6 76 2 0 8
-14 14 -30z m-2230 -17 c-7 -10 -14 -20 -16 -22 -1 -2 -9 4 -17 12 -17 17 -8
25 28 26 16 1 17 -1 5 -16z m1521 -35 c0 -13 -4 -28 -9 -33 -5 -6 -11 -30 -14
-55 -2 -25 -8 -56 -12 -70 l-8 -25 22 23 c27 27 28 27 41 2 9 -16 7 -24 -5
-36 -16 -16 -20 -35 -7 -33 22 4 31 -3 25 -18 -9 -23 -33 -48 -33 -34 0 6 -7
11 -16 11 -9 0 -14 5 -12 12 2 6 -4 20 -13 29 -27 27 -13 150 23 201 10 14 9
20 -6 31 -12 9 -17 20 -13 31 6 16 9 16 22 2 8 -8 15 -25 15 -38z m-800 3 c0
-10 -7 -24 -15 -31 -13 -11 -15 -8 -15 19 0 21 5 31 15 31 8 0 15 -8 15 -19z
m1420 -1 c0 -5 -4 -10 -10 -10 -5 0 -10 5 -10 10 0 6 5 10 10 10 6 0 10 -4 10
-10z m1320 -10 c0 -5 -5 -10 -11 -10 -5 0 -7 5 -4 10 3 6 8 10 11 10 2 0 4 -4
4 -10z m-1786 -42 c-4 -24 -11 -54 -15 -68 -7 -24 -7 -24 -8 5 -1 45 10 105
20 105 5 0 6 -19 3 -42z m1000 21 c-9 -16 -69 -39 -96 -38 -19 1 -20 2 -4 6
10 3 33 14 50 24 34 21 61 25 50 8z m-442 -66 c-7 -36 -12 -27 -11 20 0 30 3
36 8 23 4 -11 6 -30 3 -43z m-494 -197 c-13 -16 -16 -4 -20 62 -1 34 -6 62
-10 62 -15 0 -8 61 10 93 l17 32 6 -120 c3 -66 2 -124 -3 -129z m942 195 c0
-11 -45 -26 -105 -36 -56 -9 -33 12 31 30 61 16 74 17 74 6z m-430 -51 c0 -5
-5 -10 -11 -10 -5 0 -7 5 -4 10 3 6 8 10 11 10 2 0 4 -4 4 -10z m1990 0 c0 -5
-5 -10 -11 -10 -5 0 -7 5 -4 10 3 6 8 10 11 10 2 0 4 -4 4 -10z m-5480 -12 c0
-5 9 -4 19 2 28 15 33 13 26 -10 -4 -12 -2 -20 5 -20 6 0 8 5 4 12 -5 8 -2 9
11 4 12 -4 32 0 52 11 47 25 52 8 10 -35 -21 -21 -35 -41 -31 -44 15 -16 123
7 183 38 69 37 91 42 91 21 0 -15 45 -57 60 -57 6 0 10 -7 10 -15 0 -10 10
-15 29 -15 22 0 30 -5 33 -24 3 -14 2 -29 -2 -33 -13 -15 -19 -58 -10 -73 8
-12 11 -12 28 3 10 9 23 17 28 17 5 0 4 -4 -2 -8 -21 -13 -27 -52 -10 -58 9
-3 14 -10 11 -14 -3 -5 -1 -11 4 -14 15 -10 -25 -81 -61 -108 -18 -14 -46 -38
-62 -53 l-29 -27 6 29 c3 15 9 36 12 46 6 14 2 17 -21 17 -18 0 -24 -3 -17 -8
8 -5 12 -25 10 -50 -2 -33 -6 -42 -21 -42 -12 0 -16 -5 -12 -15 4 -10 -1 -15
-14 -15 -11 0 -20 -4 -20 -10 0 -12 -82 -60 -103 -60 -10 0 -16 -6 -15 -12 2
-8 -11 -14 -37 -16 l-40 -3 29 20 c16 11 30 29 31 41 1 12 6 25 11 28 5 4 15
19 21 34 15 34 9 35 -63 13 -63 -19 -61 -20 -79 13 l-15 27 2 -25 c2 -17 -1
-24 -11 -22 -7 1 -19 -2 -27 -9 -18 -14 -48 -4 -37 13 4 7 8 20 8 28 0 8 15
35 33 59 18 24 37 62 43 85 6 22 20 53 30 67 24 35 25 49 0 21 -10 -12 -23
-22 -29 -22 -6 0 -16 -17 -23 -37 -16 -51 -36 -80 -88 -131 -24 -23 -44 -42
-45 -42 -1 0 0 16 2 35 l4 35 -48 -47 c-51 -50 -94 -64 -94 -31 0 23 -9 23
-26 1 -21 -28 -33 0 -22 51 15 71 49 164 67 188 12 15 20 46 23 87 3 41 10 68
20 75 8 6 14 17 12 24 -1 7 0 8 3 2 9 -18 27 -10 66 28 33 34 77 51 77 30z
m3110 -75 c-1 -49 -1 -90 0 -93 7 -21 7 -41 -1 -46 -6 -3 -7 -14 -4 -25 4 -11
2 -19 -5 -19 -7 0 -10 -8 -7 -19 7 -29 -7 -45 -23 -26 -7 8 -9 15 -4 15 10 0
13 198 3 215 -3 6 -2 26 2 45 3 20 7 26 8 15 2 -19 3 -19 13 3 6 12 13 22 15
22 3 0 4 -39 3 -87z m305 27 c-3 -61 -13 -59 -17 3 -2 40 0 53 8 46 6 -5 10
-27 9 -49z m415 56 c0 -2 -9 -6 -20 -9 -11 -3 -18 -1 -14 4 5 9 34 13 34 5z
m-631 -53 c6 -21 11 -55 11 -75 0 -23 5 -38 12 -38 8 0 6 -6 -5 -17 -27 -27
-39 -3 -43 86 -3 86 8 105 25 44z m-3329 17 c0 -5 -5 -10 -11 -10 -5 0 -7 5
-4 10 3 6 8 10 11 10 2 0 4 -4 4 -10z m4031 -60 c-18 -15 -30 -33 -27 -39 4
-6 -4 -15 -19 -21 -40 -15 -55 -13 -48 8 6 15 5 15 -10 3 -9 -7 -24 -10 -33
-7 -16 6 -16 8 1 20 15 11 16 14 4 22 -19 12 31 23 51 12 10 -6 29 -2 55 11
56 28 66 25 26 -9z m-594 -67 c-2 -16 -4 -3 -4 27 0 30 2 43 4 28 2 -16 2 -40
0 -55z m-497 -4 c0 -23 -25 -25 -34 -4 -3 8 -3 22 0 30 8 21 34 0 34 -26z
m-79 -12 c-13 -13 -15 1 -4 30 7 17 8 17 11 -1 2 -10 -1 -23 -7 -29z m746 21
c-3 -8 -6 -5 -6 6 -1 11 2 17 5 13 3 -3 4 -12 1 -19z m539 -29 c-9 -19 -15
-29 -16 -22 0 18 20 66 25 61 3 -3 -1 -20 -9 -39z m-476 11 c0 -5 -5 -10 -11
-10 -5 0 -7 5 -4 10 3 6 8 10 11 10 2 0 4 -4 4 -10z m-533 -17 c-2 -10 3 -31
11 -46 14 -31 11 -39 -16 -43 -9 -2 -18 -8 -20 -13 -2 -6 -8 -11 -14 -11 -6 0
-8 7 -5 14 4 10 1 13 -9 9 -15 -6 -17 -2 -8 20 3 9 14 12 31 9 20 -4 24 -2 17
9 -4 7 -8 24 -7 36 1 32 2 33 14 33 6 0 9 -8 6 -17z m-91 -13 c8 0 14 -7 14
-15 0 -8 -4 -15 -10 -15 -10 0 -31 33 -29 47 0 4 3 2 6 -4 2 -7 11 -13 19 -13z
m-66 -11 c0 -5 -4 -9 -10 -9 -5 0 -10 7 -10 16 0 8 5 12 10 9 6 -3 10 -10 10
-16z m720 6 c7 -9 8 -15 2 -15 -5 0 -12 7 -16 15 -3 8 -4 15 -2 15 2 0 9 -7
16 -15z m380 5 c0 -12 -41 -30 -52 -23 -14 8 -9 21 10 26 30 8 42 7 42 -3z
m-1181 -7 c-3 -20 2 -27 10 -14 7 11 13 5 25 -24 19 -45 19 -46 5 -42 -12 2
-24 -15 -39 -57 -13 -37 -22 -28 -26 26 -1 24 -3 43 -5 43 -4 0 -7 51 -4 63 5
13 36 17 34 5z m443 -25 c-14 -25 -26 -34 -51 -36 -24 -3 -32 0 -28 10 2 7 12
12 21 12 9 -1 19 8 22 22 4 17 13 24 30 24 l24 0 -18 -32z m48 16 c0 -8 -4
-12 -10 -9 -5 3 -10 10 -10 16 0 5 5 9 10 9 6 0 10 -7 10 -16z m280 -10 c0 -8
-4 -14 -10 -14 -5 0 -10 9 -10 21 0 11 5 17 10 14 6 -3 10 -13 10 -21z m335 6
c-3 -5 -10 -10 -16 -10 -5 0 -9 5 -9 10 0 6 7 10 16 10 8 0 12 -4 9 -10z
m-2125 -10 c0 -5 -7 -10 -16 -10 -8 0 -12 5 -9 10 3 6 10 10 16 10 5 0 9 -4 9
-10z m1110 -45 c0 -18 3 -42 6 -52 5 -17 5 -17 -9 0 -8 10 -13 26 -10 36 3 10
0 22 -6 25 -17 11 -13 36 4 30 9 -4 15 -19 15 -39z m197 30 c0 -8 -4 -15 -8
-15 -11 0 -20 16 -12 24 11 11 20 7 20 -9z m823 -4 c-14 -26 -28 -34 -48 -26
-13 5 -11 9 13 25 38 25 48 25 35 1z m-956 -18 c8 -20 1 -27 -19 -20 -8 4 -15
15 -15 26 0 24 25 19 34 -6z m-1334 2 c0 -9 -9 -15 -25 -15 -26 0 -34 15 -12
23 23 10 37 7 37 -8z m195 5 c-3 -5 -11 -10 -16 -10 -6 0 -7 5 -4 10 3 6 11
10 16 10 6 0 7 -4 4 -10z m1461 -12 c-1 -13 -6 -22 -9 -20 -4 1 -12 2 -17 2
-7 0 -7 6 0 20 14 27 31 25 26 -2z m719 -13 c-32 -26 -45 -31 -45 -15 0 5 -13
7 -30 4 -16 -4 -30 -3 -30 2 0 9 121 43 130 37 2 -2 -9 -15 -25 -28z m-533 11
c10 -7 15 -16 12 -19 -9 -8 -44 11 -44 23 0 13 12 12 32 -4z m-1874 -38 c-3
-7 -13 -15 -24 -17 -16 -3 -17 -1 -5 13 16 19 34 21 29 4z m1582 -3 c-7 -9
-15 -13 -17 -11 -7 7 7 26 19 26 6 0 6 -6 -2 -15z m-1843 -1 c-3 -3 -12 -4
-19 -1 -8 3 -5 6 6 6 11 1 17 -2 13 -5z m1522 -45 c-10 -9 -16 -19 -12 -23 3
-3 1 -6 -5 -6 -6 0 -14 5 -17 10 -3 6 -2 10 3 10 6 0 15 15 22 33 11 29 13 30
19 12 6 -14 3 -25 -10 -36z m931 39 c0 -4 7 -4 17 -1 11 4 14 3 9 -5 -10 -17
-73 -15 -79 2 -4 9 3 13 24 12 16 -1 29 -4 29 -8z m273 6 c17 -17 -55 -57
-136 -74 -44 -10 -60 -11 -69 -2 -19 19 20 41 72 42 25 0 61 8 80 19 41 22 45
23 53 15z m-2409 -19 c-4 -8 -1 -15 5 -15 17 0 13 -17 -6 -24 -9 -4 -21 -2
-27 4 -16 16 -33 12 -39 -10 -6 -25 -35 -25 -65 0 -27 22 -21 46 7 31 20 -11
82 -6 90 7 5 7 14 13 38 21 1 1 0 -6 -3 -14z m1289 -27 c2 -13 8 -31 12 -42 6
-14 4 -17 -10 -15 -14 3 -19 15 -21 47 -3 43 10 50 19 10z m420 17 c4 -8 1
-17 -5 -21 -7 -4 -8 -3 -4 4 4 7 2 12 -4 12 -6 0 -8 5 -5 10 8 14 12 13 18 -5z
m280 0 c-3 -9 -8 -14 -10 -11 -3 3 -2 9 2 15 9 16 15 13 8 -4z m-2173 -10 c0
-8 -9 -15 -20 -15 -11 0 -20 5 -20 11 0 5 4 8 9 4 5 -3 12 -1 16 5 9 14 15 12
15 -5z m1830 -15 c0 -16 -4 -30 -9 -30 -11 0 -24 -31 -16 -38 3 -3 12 3 20 14
8 11 15 14 15 7 0 -19 27 -16 42 5 7 9 27 27 44 39 32 22 32 22 26 1 -3 -11
-14 -23 -24 -26 -16 -4 -19 -12 -16 -51 3 -39 0 -46 -14 -43 -11 2 -18 -3 -18
-12 0 -22 -13 -26 -35 -10 -19 14 -19 15 2 20 12 3 24 13 27 22 3 10 9 24 12
32 5 12 4 13 -7 3 -7 -7 -20 -13 -28 -13 -23 -1 -56 -49 -43 -62 7 -7 2 -18
-16 -34 -21 -18 -24 -26 -14 -32 12 -8 12 -13 1 -31 -24 -37 -39 -26 -55 39
-2 8 4 21 13 28 13 9 14 15 5 24 -17 17 -15 28 6 28 28 0 34 11 17 30 -14 16
-14 19 -1 33 8 8 12 17 9 21 -4 3 -1 6 5 6 7 0 12 11 12 24 0 22 10 33 33 35
4 1 7 -12 7 -29z m-1576 -11 c14 -29 12 -59 -4 -59 -10 0 -21 30 -15 40 3 4
-2 13 -10 20 -19 16 -19 30 -1 30 8 0 21 -14 30 -31z m1256 21 c0 -5 -7 -10
-15 -10 -8 0 -15 5 -15 10 0 6 7 10 15 10 8 0 15 -4 15 -10z m718 4 c18 -5 20
-9 11 -20 -18 -22 -48 -18 -46 6 1 22 2 22 35 14z m-930 -21 c-2 -9 -8 -18
-15 -20 -9 -3 -11 11 -4 35 1 1 6 2 12 2 6 0 9 -8 7 -17z m135 -3 c-5 -21 -33
-28 -33 -9 0 5 4 7 10 4 6 -3 7 1 4 9 -4 10 -1 16 9 16 10 0 13 -7 10 -20z
m1167 5 c5 3 10 1 10 -4 0 -6 -6 -11 -12 -11 -20 0 -122 -50 -130 -63 -9 -15
-68 -21 -68 -7 0 6 8 13 18 16 9 3 25 10 34 15 10 5 26 9 36 9 11 0 27 9 37
20 10 11 22 17 26 14 5 -3 9 2 9 12 0 13 3 14 15 4 8 -6 19 -9 25 -5z m-1060
1 c0 -3 -4 -8 -10 -11 -5 -3 -10 -1 -10 4 0 6 5 11 10 11 6 0 10 -2 10 -4z
m-1351 -52 c-6 -8 -18 -14 -27 -14 -13 0 -12 3 3 20 20 22 43 17 24 -6z m1207
-9 c-3 -9 -10 -14 -15 -11 -5 4 -11 0 -14 -6 -2 -7 -8 -10 -12 -6 -4 4 3 16
16 27 27 21 35 20 25 -4z m554 -10 c0 -8 -4 -15 -10 -15 -5 0 -10 7 -10 15 0
8 5 15 10 15 6 0 10 -7 10 -15z m-370 -11 c0 -8 -4 -12 -10 -9 -5 3 -10 10
-10 16 0 5 5 9 10 9 6 0 10 -7 10 -16z m128 -7 c2 -12 -3 -17 -17 -17 -12 0
-21 6 -21 13 0 31 32 34 38 4z m-208 3 c0 -5 -5 -10 -11 -10 -5 0 -7 5 -4 10
3 6 8 10 11 10 2 0 4 -4 4 -10z m1037 4 c-3 -3 -12 -4 -19 -1 -8 3 -5 6 6 6
11 1 17 -2 13 -5z m-1070 -31 c-7 -36 21 -59 40 -34 10 13 12 14 13 1 0 -23
-12 -35 -47 -51 -18 -8 -33 -18 -33 -22 0 -5 5 -5 12 -1 7 4 8 3 4 -4 -4 -7
-16 -12 -28 -12 -18 0 -20 4 -14 33 4 17 9 51 13 75 4 33 10 42 26 42 16 0 18
-5 14 -27z m713 -27 c0 -6 -10 0 -21 14 l-20 25 7 -25 c3 -14 3 -22 -1 -18 -9
9 -45 -34 -45 -53 0 -9 -3 -10 -10 -3 -11 11 9 59 40 94 14 17 16 17 33 -2 9
-11 17 -25 17 -32z m425 24 c-20 -22 -35 -26 -35 -10 0 6 10 15 23 20 32 13
32 12 12 -10z m-3230 0 c-3 -5 -11 -10 -16 -10 -6 0 -7 5 -4 10 3 6 11 10 16
10 6 0 7 -4 4 -10z m2588 -74 c-3 -4 -9 -2 -14 5 -5 9 -9 10 -9 2 0 -6 -9 -9
-20 -6 -24 6 -27 25 -3 21 11 -2 19 5 21 17 8 45 15 49 22 10 5 -22 6 -44 3
-49z m35 53 c-12 -16 -24 -26 -26 -20 -5 16 17 51 34 51 11 0 10 -7 -8 -31z
m532 -29 c-25 -22 -16 -26 24 -10 28 10 35 0 12 -19 -16 -13 -107 -32 -120
-24 -5 3 2 15 15 25 l24 20 -23 -5 c-40 -9 -13 7 31 19 61 16 62 16 37 -6z
m-3330 -10 c0 -11 -7 -20 -15 -20 -8 0 -15 -7 -15 -15 0 -8 -4 -15 -8 -15 -14
0 -8 44 8 57 22 18 30 16 30 -7z m2448 9 c-2 -6 -8 -10 -13 -10 -5 0 -11 4
-13 10 -2 6 4 11 13 11 9 0 15 -5 13 -11z m545 -21 c-6 -30 -5 -32 10 -19 14
11 18 11 23 -2 3 -9 13 -13 25 -10 11 3 19 0 19 -7 0 -8 -10 -11 -30 -8 -19 3
-31 0 -35 -10 -4 -11 -8 -12 -19 -3 -10 8 -16 9 -21 1 -3 -5 0 -10 7 -11 7 -1
2 -4 -12 -8 -17 -5 -24 -13 -22 -27 2 -11 -1 -15 -5 -9 -16 20 -36 17 -30 -5
3 -11 1 -20 -4 -20 -5 0 -9 5 -9 11 0 6 -6 9 -12 6 -9 -3 -13 7 -14 29 0 19 5
35 13 38 7 3 13 1 13 -4 0 -5 9 -2 21 8 48 40 69 62 69 72 0 5 4 10 10 10 5 0
7 -14 3 -32z m-3586 -3 c-4 -8 -14 -15 -23 -15 -16 0 -16 2 1 20 20 22 31 20
22 -5z m2963 -18 c0 -16 -18 3 -23 25 -6 22 -5 22 8 4 8 -11 15 -24 15 -29z
m295 33 c8 -13 -4 -50 -16 -50 -13 0 -22 27 -15 45 6 17 22 20 31 5z m128 -5
c-3 -9 -8 -14 -10 -11 -3 3 -2 9 2 15 9 16 15 13 8 -4z m135 -5 c-7 -10 -14
-17 -17 -15 -4 4 18 35 25 35 2 0 -1 -9 -8 -20z m-582 -49 c-8 -13 -36 -15
-36 -3 0 4 5 13 12 20 14 14 34 0 24 -17z m118 14 c3 -8 1 -15 -4 -15 -6 0
-10 7 -10 15 0 8 2 15 4 15 2 0 6 -7 10 -15z m-29 -25 c3 -5 1 -10 -4 -10 -6
0 -11 5 -11 10 0 6 2 10 4 10 3 0 8 -4 11 -10z m-45 -41 c0 -10 -4 -19 -10
-19 -12 0 -31 35 -24 43 11 11 34 -5 34 -24z m260 17 c0 -8 -4 -18 -10 -21 -5
-3 -10 3 -10 14 0 12 5 21 10 21 6 0 10 -6 10 -14z m37 8 c-3 -3 -12 -4 -19
-1 -8 3 -5 6 6 6 11 1 17 -2 13 -5z m-175 -21 c22 -20 24 -43 3 -43 -8 0 -15
8 -15 18 0 10 -5 23 -12 30 -18 18 3 14 24 -5z m318 7 c0 -5 -4 -10 -10 -10
-5 0 -10 5 -10 10 0 6 5 10 10 10 6 0 10 -4 10 -10z m-1970 -19 c0 -6 -4 -13
-10 -16 -5 -3 -10 1 -10 9 0 9 5 16 10 16 6 0 10 -4 10 -9z"/>
<path d="M1286 4291 c-4 -5 -2 -20 3 -33 9 -21 10 -21 10 10 1 32 -3 39 -13
23z"/>
<path d="M5635 3880 c-3 -5 -1 -10 4 -10 6 0 11 5 11 10 0 6 -2 10 -4 10 -3 0
-8 -4 -11 -10z"/>
<path d="M5610 3703 c1 -18 19 -35 29 -28 9 5 9 10 0 21 -12 15 -29 19 -29 7z"/>
<path d="M5605 3600 c-3 -5 1 -10 9 -10 9 0 16 5 16 10 0 6 -4 10 -9 10 -6 0
-13 -4 -16 -10z"/>
<path d="M5650 3506 c0 -12 -3 -51 -6 -85 -5 -43 -3 -61 5 -61 6 0 11 6 11 14
0 8 9 18 20 21 16 5 19 12 14 28 -4 12 -10 23 -14 25 -4 1 -5 21 -3 42 3 31 1
40 -11 40 -10 0 -16 -9 -16 -24z"/>
<path d="M5751 3346 c-8 -9 -8 -16 -2 -20 6 -4 8 -14 5 -24 -4 -10 -2 -13 3
-7 4 6 20 16 36 22 37 17 36 43 -2 43 -16 0 -34 -6 -40 -14z"/>
<path d="M5632 3275 c-14 -29 2 -34 18 -6 12 24 13 31 2 31 -5 0 -14 -11 -20
-25z"/>
<path d="M5798 3273 c7 -3 16 -2 19 1 4 3 -2 6 -13 5 -11 0 -14 -3 -6 -6z"/>
<path d="M1410 3830 c0 -5 5 -10 10 -10 6 0 10 5 10 10 0 6 -4 10 -10 10 -5 0
-10 -4 -10 -10z"/>
<path d="M2500 3911 c0 -12 5 -21 10 -21 6 0 10 6 10 14 0 8 -4 18 -10 21 -5
3 -10 -3 -10 -14z"/>
<path d="M1521 3914 c0 -11 3 -14 6 -6 3 7 2 16 -1 19 -3 4 -6 -2 -5 -13z"/>
<path d="M1560 3870 c0 -5 5 -10 10 -10 6 0 10 5 10 10 0 6 -4 10 -10 10 -5 0
-10 -4 -10 -10z"/>
<path d="M2580 3820 c0 -5 4 -10 9 -10 6 0 13 5 16 10 3 6 -1 10 -9 10 -9 0
-16 -4 -16 -10z"/>
<path d="M2681 3684 c0 -11 3 -14 6 -6 3 7 2 16 -1 19 -3 4 -6 -2 -5 -13z"/>
<path d="M2312 3498 c2 -6 10 -14 16 -16 7 -2 10 2 6 12 -7 18 -28 22 -22 4z"/>
<path d="M2356 3425 c4 -8 10 -12 15 -9 14 8 10 24 -6 24 -9 0 -12 -6 -9 -15z"/>
<path d="M2351 3373 c32 -41 72 -59 47 -21 -8 11 -25 25 -37 30 -22 8 -23 7
-10 -9z"/>
<path d="M2525 3630 c-3 -5 -1 -10 4 -10 6 0 11 5 11 10 0 6 -2 10 -4 10 -3 0
-8 -4 -11 -10z"/>
<path d="M2540 3589 c0 -5 5 -7 10 -4 6 3 10 8 10 11 0 2 -4 4 -10 4 -5 0 -10
-5 -10 -11z"/>
<path d="M801 3314 c0 -11 3 -14 6 -6 3 7 2 16 -1 19 -3 4 -6 -2 -5 -13z"/>
<path d="M200 3180 c0 -5 5 -10 10 -10 6 0 10 5 10 10 0 6 -4 10 -10 10 -5 0
-10 -4 -10 -10z"/>
<path d="M520 3155 c0 -8 5 -15 10 -15 6 0 10 7 10 15 0 8 -4 15 -10 15 -5 0
-10 -7 -10 -15z"/>
<path d="M930 1936 c0 -11 49 -61 55 -55 2 3 -9 18 -25 34 -17 16 -30 25 -30
21z"/>
<path d="M3071 3466 c-7 -8 -8 -17 -3 -20 6 -3 12 3 15 14 6 24 4 25 -12 6z"/>
<path d="M2777 3349 c6 -23 9 -24 16 -5 3 8 0 17 -7 19 -10 4 -12 -1 -9 -14z"/>
<path d="M2766 2885 c4 -8 8 -15 10 -15 2 0 4 7 4 15 0 8 -4 15 -10 15 -5 0
-7 -7 -4 -15z"/>
<path d="M3130 2710 c0 -5 5 -10 10 -10 6 0 10 5 10 10 0 6 -4 10 -10 10 -5 0
-10 -4 -10 -10z"/>
<path d="M3001 2693 c-1 -6 -8 -19 -17 -27 -8 -9 -11 -16 -6 -16 15 0 34 28
29 42 -4 9 -6 9 -6 1z"/>
<path d="M3140 2580 c0 -5 4 -10 9 -10 6 0 13 5 16 10 3 6 -1 10 -9 10 -9 0
-16 -4 -16 -10z"/>
<path d="M3110 2545 c0 -29 12 -41 38 -41 15 0 22 6 22 19 0 16 -2 17 -15 7
-17 -14 -17 -14 -33 15 l-11 20 -1 -20z"/>
<path d="M2715 2720 c-3 -5 -1 -10 4 -10 6 0 11 5 11 10 0 6 -2 10 -4 10 -3 0
-8 -4 -11 -10z"/>
<path d="M2781 2649 c-12 -12 -20 -23 -18 -26 9 -9 47 17 47 32 0 19 -2 19
-29 -6z"/>
<path d="M3670 2552 c0 -12 34 -42 48 -42 20 0 13 22 -8 27 -11 3 -20 9 -20
14 0 5 -4 9 -10 9 -5 0 -10 -4 -10 -8z"/>
<path d="M3775 2520 c3 -5 10 -10 16 -10 5 0 9 5 9 10 0 6 -7 10 -16 10 -8 0
-12 -4 -9 -10z"/>
<path d="M3250 2210 c0 -5 5 -10 10 -10 6 0 10 5 10 10 0 6 -4 10 -10 10 -5 0
-10 -4 -10 -10z"/>
<path d="M3301 2173 c0 -5 4 -17 9 -28 8 -18 9 -17 9 8 1 15 -3 27 -9 27 -5 0
-10 -3 -9 -7z"/>
<path d="M3271 2134 c0 -11 3 -14 6 -6 3 7 2 16 -1 19 -3 4 -6 -2 -5 -13z"/>
<path d="M3260 2076 c0 -8 5 -18 10 -21 6 -3 10 1 10 9 0 8 -4 18 -10 21 -5 3
-10 -1 -10 -9z"/>
<path d="M459 566 c-20 -18 -42 -35 -50 -38 -8 -3 -11 -9 -7 -12 8 -10 88 25
111 48 18 18 15 36 -6 36 -7 0 -28 -16 -48 -34z"/>
<path d="M681 576 c-7 -9 -21 -16 -30 -16 -14 0 -14 -2 -1 -10 12 -8 13 -13 2
-30 -10 -16 -10 -20 1 -20 17 0 52 61 46 79 -4 10 -8 9 -18 -3z"/>
<path d="M370 499 c0 -5 5 -7 10 -4 6 3 10 8 10 11 0 2 -4 4 -10 4 -5 0 -10
-5 -10 -11z"/>
<path d="M4345 570 c3 -5 8 -10 11 -10 2 0 4 5 4 10 0 6 -5 10 -11 10 -5 0 -7
-4 -4 -10z"/>
<path d="M1617 6466 c-14 -11 -15 -15 -3 -19 8 -3 16 2 19 14 3 10 4 19 4 19
-1 0 -10 -7 -20 -14z"/>
<path d="M1640 6410 c0 -5 7 -10 15 -10 8 0 15 5 15 10 0 6 -7 10 -15 10 -8 0
-15 -4 -15 -10z"/>
<path d="M1600 6395 c0 -8 2 -15 4 -15 2 0 6 7 10 15 3 8 1 15 -4 15 -6 0 -10
-7 -10 -15z"/>
<path d="M1650 6380 c0 -5 7 -10 15 -10 8 0 15 -5 15 -12 0 -6 2 -9 5 -6 3 3
3 13 -1 22 -7 17 -34 22 -34 6z"/>
<path d="M1968 6283 c6 -2 18 -2 25 0 6 3 1 5 -13 5 -14 0 -19 -2 -12 -5z"/>
<path d="M4168 6233 c6 -2 18 -2 25 0 6 3 1 5 -13 5 -14 0 -19 -2 -12 -5z"/>
<path d="M2030 6210 c0 -5 5 -10 10 -10 6 0 10 5 10 10 0 6 -4 10 -10 10 -5 0
-10 -4 -10 -10z"/>
<path d="M4225 6200 c3 -5 8 -10 11 -10 2 0 4 5 4 10 0 6 -5 10 -11 10 -5 0
-7 -4 -4 -10z"/>
<path d="M4420 5850 c0 -5 5 -10 11 -10 5 0 7 5 4 10 -3 6 -8 10 -11 10 -2 0
-4 -4 -4 -10z"/>
<path d="M4321 5644 c0 -11 3 -14 6 -6 3 7 2 16 -1 19 -3 4 -6 -2 -5 -13z"/>
<path d="M4316 5598 c-9 -34 -8 -35 16 -33 29 2 33 18 10 39 -19 16 -20 16
-26 -6z"/>
<path d="M6114 965 c25 -19 37 -19 30 0 -4 8 -16 15 -28 15 -21 -1 -21 -1 -2
-15z"/>
<path d="M2635 950 c-10 -11 -16 -22 -13 -25 7 -8 58 19 55 29 -6 18 -24 16
-42 -4z"/>
<path d="M2777 820 c-3 -11 -1 -20 4 -20 5 0 9 9 9 20 0 11 -2 20 -4 20 -2 0
-6 -9 -9 -20z"/>
<path d="M6140 805 c-7 -9 -11 -17 -9 -19 7 -7 49 13 49 24 0 15 -26 12 -40
-5z"/>
<path d="M6190 810 c0 -5 5 -10 10 -10 6 0 10 5 10 10 0 6 -4 10 -10 10 -5 0
-10 -4 -10 -10z"/>
<path d="M6276 804 c-8 -22 1 -31 16 -16 9 9 9 15 1 23 -7 7 -12 5 -17 -7z"/>
<path d="M2770 780 c0 -5 5 -10 10 -10 6 0 10 5 10 10 0 6 -4 10 -10 10 -5 0
-10 -4 -10 -10z"/>
<path d="M2811 764 c0 -11 3 -14 6 -6 3 7 2 16 -1 19 -3 4 -6 -2 -5 -13z"/>
<path d="M2836 711 c-4 -7 -5 -15 -2 -18 9 -9 19 4 14 18 -4 11 -6 11 -12 0z"/>
<path d="M6380 591 c0 -6 5 -13 10 -16 6 -3 10 -21 10 -39 0 -31 45 -115 69
-130 18 -12 12 10 -8 28 -10 9 -22 31 -25 49 -10 48 -38 117 -47 117 -5 0 -9
-4 -9 -9z"/>
<path d="M6730 310 c8 -5 24 -10 34 -10 26 0 18 6 -19 14 -22 5 -26 4 -15 -4z"/>
<path d="M1306 15 c-3 -8 -1 -15 4 -15 6 0 10 7 10 15 0 19 -6 19 -14 0z"/>
</g>
</svg>
